<svg>
    
<path d="M96.57,132.49l-0.13,0.14c0.1,0.17,0.21,0.33,0.32,0.49l-0.22-0.06l-0.11,0.13l-0.02,0.09c0.06,0.14,0.09,0.13,0.23,0.23
		l0.15-0.11l0.22,0.11c0.07,0.1,0.13,0.2,0.2,0.3c0.05,0.08,0.16,0.15,0.26,0.13l0.14-0.04c0.09-0.07,0.17-0.21,0.12-0.33
		C97.52,133.1,97,132.76,96.57,132.49z"></path>

<path d="M150.57,92.11c0.19-0.32,0.32-0.62,0.1-1.05c-0.21-0.41-0.65-0.54-1.07-0.58c0.03-0.11,0.04-0.21,0.04-0.34
		c0-0.24-0.13-0.46-0.27-0.64c-0.18-0.22-0.38-0.29-0.6-0.33c0.02-0.16-0.02-0.32-0.15-0.5c-0.09-0.11-0.19-0.19-0.31-0.26
		l-0.11-0.05c-0.09-0.04-0.18-0.08-0.27-0.11l-0.04-0.01l0,0c-0.1-0.03-0.19-0.05-0.29-0.06v0c-0.1-0.02-0.2-0.03-0.29-0.04
		c-0.23-0.03-0.42-0.02-0.59-0.16c-0.18-0.14-0.42-0.23-0.65-0.18c-0.39,0.08-0.54,0.43-0.56,0.79c-0.14-0.02-0.26,0.01-0.37,0.07
		c-0.05-0.12-0.14-0.24-0.25-0.37l-0.06-0.07l0.06,0.05c0.01-0.12,0.02-0.21,0.07-0.33c0.1-0.3,0.05-0.54-0.11-0.82
		c-0.07-0.11-0.17-0.21-0.29-0.3c0.73,0.01,1.19-0.48,1.11-1.2l0,0l-0.04-0.25c0.47-0.33,0.63-0.9,0.29-1.4l-0.16-0.22
		c-0.25-0.27-0.79-0.44-1.14-0.31c-0.25,0.1-0.19,0.09-0.39-0.03l-0.06-0.24l-0.03-0.06l-0.1-0.13l-0.14-0.17l-0.04,0.02l-0.1-0.06
		l-0.02-0.02c0.25-0.07,0.43-0.23,0.54-0.46c0.54-0.19,1.26-0.58,1.17-1.19c-0.07-0.41-0.29-0.64-0.59-0.76
		c0.32-0.39,0.55-0.85,0.31-1.3c-0.08-0.14-0.16-0.24-0.25-0.32l0,0l-0.02-0.02l-0.25-0.16l-0.05-0.02
		c-0.16-0.06-0.34-0.08-0.53-0.08l-0.05,0c-0.09,0-0.18,0-0.27,0c-0.14-0.37-0.54-0.52-0.97-0.54c0-0.46-0.09-0.9-0.59-1.1
		c-0.44-0.18-0.91-0.11-1.28,0.15l-0.24-0.03c0.42-0.56-0.29-1.38-0.71-1.99c0.21-0.01,0.42-0.02,0.65-0.13
		c0.21-0.09,0.12-0.42,0.04-0.55l-0.07-0.11c0.61-0.25,0.52-1,0.01-1.49c0.02-0.11,0.02-0.21,0.01-0.3v-0.03l0,0l-0.01-0.04l0-0.02
		c-0.03-0.11-0.09-0.21-0.16-0.3l-0.02-0.03c-0.08-0.09-0.17-0.17-0.28-0.23l-0.03-0.02c-0.11-0.06-0.23-0.11-0.36-0.14l-0.01,0v0
		l-0.09-0.02c-0.04-0.27-0.17-0.52-0.44-0.69c-0.18-0.11-0.36-0.16-0.55-0.19l0.02,0l-0.04,0l-0.25-0.02l-0.09-0.01
		c-0.12,0-0.23,0-0.35,0h-0.18c0.14-0.08,0.27-0.16,0.34-0.27c0.15-0.23,0.24-0.45,0.14-0.73l-0.03-0.09l0.06-0.11
		c0.21-0.73-0.3-1.21-0.59-1.81c-0.2-0.41-0.21-0.92-0.73-1.08c-0.5-0.16-1-0.11-1.47,0.05c-0.17-0.22-0.39-0.39-0.64-0.52
		c0.21-0.3,0.38-0.6,0.32-1.04c-0.08-0.54-0.38-1.01-0.81-1.33c-0.42-0.31-1.01-0.59-1.55-0.51c-0.37,0.06-0.6,0.34-0.98,0.38
		l-0.13,0.03l0-0.01l-0.18,0.06c-0.15,0.05-0.29,0.11-0.44,0.16c-0.26,0.09-0.21,0.28-0.44,0.18c-0.14-0.06-0.27-0.09-0.41-0.11
		l-0.04-0.01l0,0l-0.16-0.03l0.1-0.2c0.25-0.77-0.26-1.48-0.95-1.78c-0.1-0.64-0.37-1.26-1.12-1.35c-0.65-0.08-1.14,0.26-1.28,0.8
		c-0.24-0.04-0.43-0.01-0.62,0.12l0.01-0.02l-0.05,0.03c-0.04-0.14-0.13-0.28-0.22-0.38l-0.11-0.11l-0.01,0l0.03-0.02l0.01-0.01
		l0.02-0.02l0.27-0.22l0.03-0.04l0.12-0.22c0.11-0.5-0.03-0.95-0.38-1.33c-0.39-0.43-1.04-0.77-1.66-0.79
		c-0.07-0.17-0.18-0.32-0.33-0.45c-0.21-0.17-0.44-0.22-0.71-0.16c-0.13,0.03-0.22,0.16-0.33,0.21c-0.22-0.17-0.41-0.28-0.76-0.29
		c-0.36,0-0.71,0.21-0.86,0.54c-0.18,0.39-0.18,0.87-0.03,1.26c0.07,0.19,0.22,0.34,0.34,0.5l0.07,0.12l-0.13-0.02l-0.12-0.05
		l-0.24-0.12v-0.01l-0.12-0.05l-0.25-0.06l0.01-0.06l0.01-0.01c0.02-0.08,0.02-0.15,0.02-0.25c-0.01-0.39-0.41-0.7-0.79-0.55
		l-0.24,0.08c0.46-1.3,0.16-3.24-1-3.78c-0.25-0.11-0.49-0.14-0.7,0.06c-0.21,0.19-0.4,0.37-0.58,0.57
		c-0.32-0.38-0.88-0.46-1.37-0.31c-0.17-0.1-0.32-0.21-0.31-0.34c0.03-0.28,0.1-0.56,0.1-0.85c-0.01-0.26-0.23-0.51-0.5-0.52
		c-0.32-0.01-0.66,0.02-0.93,0.23c-0.25,0.19-0.63,0.71-0.98,0.46c-0.24-0.17-0.48-0.25-0.77-0.22l-0.11,0.06l-0.07,0.08
		c-0.07,0.1-0.14,0.2-0.17,0.19l-0.23-0.14c-0.37-0.23-0.79-0.54-1.2-0.57v0l-0.01,0l-0.24,0.01c-0.62,0.13-0.67,0.87-0.49,1.34
		c0.11,0.29,0.05,0.39-0.16,0.41v0c-0.07,0.01-0.16,0-0.26-0.01c-0.18-0.02-0.34-0.04-0.52-0.02c-0.37,0.04-0.62,0.18-0.85,0.47
		c-0.46,0.57-0.04,1.41,0.3,1.95c-0.07,0.06-0.14,0.14-0.19,0.24c-0.06,0.11-0.07,0.23-0.04,0.37c-0.15,0.17-0.27,0.36-0.35,0.58
		c-0.34,0.19-0.61,0.45-0.79,0.75c-0.12,0.03-0.24,0.1-0.36,0.2c-0.4,0.32-0.67,0.42-1.2,0.35c-0.18-0.02-0.47-0.46-0.73-0.55
		c-0.14-0.05-0.3-0.09-0.46-0.05c-0.09,0.02-0.18,0.04-0.27,0.08l-0.1,0.04c-0.17-0.16-0.39-0.23-0.64-0.22
		c-0.48,0.02-0.93,0.16-1.34,0.39v0l-0.01,0.01c-0.14,0.08-0.29,0.17-0.42,0.27c-0.59,0.08-1.37,0.45-1.41,1.12
		c-0.01,0.21,0.01,0.38,0.08,0.58l0.01,0.05l-0.11,0.16c-0.15,0.24-0.22,0.45-0.22,0.69c-0.31,0.19-0.66,0.48-0.76,0.8
		c-0.06,0.19-0.01,0.34,0.09,0.46c-0.16,0.49-0.03,0.95,0.49,1.3c0.3,0.21,0.74,0.19,1.15,0.14l0.12,0.21l0.06,0.07l-0.23,0.09
		c-0.18,0.06-0.38,0.12-0.55,0.21c-0.35,0.18-0.42,0.47-0.32,0.73l-0.21,0.23c-0.42-0.24-0.95-0.37-1.43-0.31
		c-0.1-0.16-0.22-0.3-0.39-0.39c-0.23-0.13-0.47-0.15-0.72-0.05c-0.12,0.05-0.2,0.19-0.29,0.26c-0.24-0.14-0.44-0.22-0.8-0.17
		c-0.36,0.05-0.67,0.31-0.77,0.67c-0.12,0.42-0.05,0.88,0.17,1.25c0.1,0.17,0.27,0.3,0.41,0.44c0.14,0.07,0.13,0.13-0.03,0.17
		c-0.07,0.1-0.15,0.19-0.24,0.27c-0.1-0.17-0.27-0.33-0.43-0.43c-0.3-0.19-0.62-0.34-0.98-0.26c-0.62,0.13-0.84,0.82-0.9,1.41
		c-0.28,0.04-0.5,0.15-0.67,0.29l-0.04,0.03c-0.1,0.09-0.17,0.19-0.22,0.31l-0.02,0.06c-0.04,0.12-0.07,0.26-0.06,0.4l0.01,0.06
		c0.01,0.16,0.05,0.33,0.12,0.51c0.25,0.6,0.7,1.17,1.23,1.59c-0.13,0.21-0.21,0.44-0.23,0.7c-0.32-0.08-0.64-0.22-0.89,0.18
		c-0.23,0.36-0.2,0.79-0.41,1.14c-0.31,0.52-0.19,1.1,0.12,1.6c-0.29,0.03-0.55,0.18-0.72,0.58c-0.09,0.22-0.12,0.48-0.12,0.75
		l-0.14,0.18l-0.05,0.22l-0.22,0.04c-0.24,0.07-0.38,0.19-0.54,0.37l-0.04,0.06c-0.23-0.13-0.49-0.17-0.76-0.05
		c-0.4-0.25-0.89-0.3-1.34-0.08c-0.5,0.25-0.57,0.71-0.54,1.18c-0.45,0.06-0.85,0.23-0.98,0.63c-0.1,0-0.2,0.01-0.29,0.02l-0.04,0
		c-0.2,0.01-0.38,0.05-0.55,0.12l-0.04,0.02l-0.24,0.16l-0.03,0.03l0,0c-0.09,0.09-0.17,0.2-0.24,0.35
		c-0.22,0.48,0.04,0.94,0.4,1.33c-0.3,0.15-0.52,0.39-0.56,0.83c-0.07,0.63,0.71,1,1.28,1.16c0.13,0.23,0.33,0.39,0.6,0.44
		l-0.02,0.02l-0.07,0.05H87.2l-0.13,0.18l-0.1,0.15l-0.03,0.06c-0.03,0.08-0.05,0.16-0.05,0.25c-0.2,0.13-0.14,0.14-0.4,0.05
		c-0.37-0.12-0.92,0.1-1.16,0.39l-0.15,0.24c-0.33,0.53-0.12,1.12,0.38,1.44l-0.03,0.26l0.01,0c-0.03,0.74,0.46,1.22,1.2,1.18
		l-0.22,0.16c-0.15,0.16-0.34,0.17-0.56,0.23c-0.09,0.02-0.19,0.05-0.29,0.08l0,0c-0.09,0.03-0.19,0.06-0.28,0.1l0,0l-0.03,0.02
		c-0.09,0.04-0.18,0.09-0.27,0.14l-0.09,0.06c-0.11,0.08-0.2,0.18-0.28,0.3c-0.11,0.19-0.13,0.36-0.09,0.51
		c-0.21,0.06-0.4,0.16-0.55,0.4c-0.12,0.19-0.22,0.43-0.19,0.66c0.02,0.12,0.04,0.22,0.09,0.33c-0.42,0.1-0.84,0.27-1,0.71
		c-0.17,0.45-0.01,0.74,0.22,1.03c-0.3,0.13-0.58,0.27-0.77,0.59c-0.36,0.61,0.17,1.26,0.69,1.53c0.62,0.32,1.4,0.03,1.95-0.29
		c0.31-0.18,0.54-0.46,0.83-0.68c0.13-0.1,0.44,0.12,0.54,0.18c0.15,0.1,0.11,0.37,0.12,0.52c0.01,0.21,0.27,0.35,0.47,0.3
		c0.62-0.17,1.21-0.34,1.57-0.91l0.06-0.09c0.22,0.24-0.28,0.59-0.43,0.81c-0.14,0.22-0.11,0.5,0.12,0.63
		c0.18,0.1,0.34,0.13,0.55,0.13c0.37,0,0.29,0.04,0.18,0.36c-0.16,0.45-0.04,0.87,0.31,1.18c0.53,0.46,1.36,0.19,1.89-0.23
		c0.57,0.2,1.07-0.29,1.42-0.81c0.09-0.13,0.17-0.26,0.26-0.39l0.02-0.02c0.2,0.16-0.08,0.47-0.01,0.7l0.01,0.01l0,0l0.05,0.13
		l0.02,0.05l0.04,0.06l0.06,0.09l0.02,0.01l0.12,0.11l0.18,0.09c0.2,0.08,0.42,0,0.61-0.08l0.11-0.06c0.06,0.75,0.56,1.51,1.27,1.69
		c0.86,0.22,1.99-0.18,2.54-0.92c0.14,0.06,0.28,0.1,0.41,0.13l0.02,0.01l0,0c0.39,0.08,0.75,0.03,0.89-0.3
		c0.41,0.03,0.83,0.07,1.16-0.21c0.5-0.43,0.24-1.06-0.11-1.49c0.09,0.11,0.46-0.11,0.56-0.13l0.12-0.03l0.04,0.02
		c0.23,0.16,0.45,0.35,0.71,0.45c0.46,0.19,0.82,0.19,1.11-0.05c0.34,0.26,0.72,0.45,1.11,0.41c0.14,0,0.29,0,0.44,0.03
		c0.3,0.17,0.61,0.25,0.92,0.17c0.18,0.22,0.41,0.37,0.66,0.45c0.1,0.05,0.2,0.09,0.31,0.12l0.22,0.04c0.1,0.25,0.2,0.5,0.42,0.68
		c0.27,0.23,0.53,0.27,0.75,0.19c0.46,0.44,1.1,0.71,1.52,0.28c0.46,0.19,0.95,0.31,1.38-0.01c0.32-0.23,0.29-0.58,0.18-0.92
		c0.15,0.01,0.3,0.01,0.45-0.02c0.49,0.25,1.22,0.51,1.69,0.42c0.32,1.34,0.5,2.72,0.59,4.1c0.18,2.6-0.4,5.1-0.62,7.68
		c-0.2,2.29,0.2,4.47,0.48,6.73c0.28,2.3,0.6,4.72-0.4,6.9c-0.81,1.77-2.25,3.31-3.84,4.51c-0.1-0.23-0.25-0.44-0.53-0.6
		c-0.12-0.07-0.23-0.01-0.29,0.08c-0.16-0.11-0.41-0.07-0.45,0.16c-0.02,0.1-0.02,0.2-0.04,0.31c-0.07-0.26-0.19-0.5-0.4-0.67
		c-0.23-0.18-0.67-0.23-0.8,0.1l0.01,0.2c-0.05,0.06-0.09,0.14-0.09,0.24l0,0.12c-0.13-0.13-0.29-0.24-0.49-0.29l-0.09-0.07
		l-0.17-0.13l-0.19-0.15c-0.22-0.12-0.41,0.16-0.27,0.34l-0.04,0.08c-0.21-0.27-0.47-0.63-0.84-0.62c-0.17,0.01-0.35,0.18-0.32,0.36
		c0.03,0.16,0.1,0.27,0.19,0.37l-0.01,0c-0.23-0.27-0.5-0.5-0.83-0.64c-0.22-0.09-0.38,0.16-0.23,0.34
		c0.48,0.54,0.94,0.98,1.25,1.62c-0.1,0-0.18,0.06-0.24,0.14c-0.25-0.73-0.64-1.34-1.34-1.35c-0.22,0-0.35,0.32-0.17,0.46
		c0.26,0.2,0.56,0.28,0.76,0.57c0.18,0.26,0.33,0.54,0.44,0.83c0.04,0.09,0.07,0.18,0.1,0.27l-0.16-0.03
		c-0.11-0.16-0.21-0.31-0.33-0.46c-0.32-0.43-0.73-1.1-1.29-1.2c-0.12-0.02-0.22,0.06-0.24,0.17c-0.11,0-0.19,0.08-0.22,0.17
		c-0.1-0.03-0.21-0.04-0.33-0.02c-0.12,0.02-0.13,0.18-0.06,0.25c0.2,0.19,0.47,0.26,0.66,0.46c0.11,0.12,0.21,0.26,0.3,0.4
		c0,0.12,0.01,0.25,0.02,0.38c-0.22-0.38-0.52-0.69-0.91-0.85c-0.32-0.34-0.7-0.7-1.12-0.77c-0.15-0.03-0.27,0.04-0.34,0.14
		l-0.09,0.01c-0.11,0.03-0.12,0.19-0.02,0.24l0.06,0.02l0.03,0.11c0.05,0.1,0.13,0.18,0.21,0.26c-0.16-0.1-0.35-0.13-0.55,0
		c-0.12,0.08-0.12,0.28-0.02,0.36c-0.1-0.05-0.21-0.09-0.32-0.1c-0.2-0.03-0.4,0.19-0.26,0.38l0.01,0.02l-0.22,0.04
		c-0.12,0.04-0.13,0.19-0.02,0.25c0.23,0.13,0.39,0.24,0.53,0.41l-0.01,0.14c0.1,0.1,0.19,0.2,0.29,0.31l0.02,0.05
		c-0.21-0.13-0.38-0.24-0.46-0.3l-0.01,0c-0.05-0.1-0.12-0.2-0.21-0.28c-0.28-0.26-0.78-0.56-1.16-0.32
		c-0.13,0.09-0.13,0.26-0.03,0.37l0.02,0.02l-0.02,0l-0.06,0.13l-0.03,0l-0.05-0.03c-0.1-0.05-0.18,0.08-0.11,0.15l0.04,0.04
		l0.01,0.11l0,0.22c0.13,0.12,0.26,0.16,0.41,0.15l0.09,0.12c0.07,0.11,0.11,0.23,0.15,0.35c-0.23-0.29-0.57-0.5-0.85-0.75
		c-0.1-0.08-0.23,0.06-0.14,0.15l0.23,0.26l-0.15-0.05c-0.1-0.04-0.16,0.14-0.06,0.18c0.21,0.09,0.32,0.23,0.38,0.44
		c0.03,0.11,0.19,0.14,0.26,0.06l0.06-0.1l0.1,0.11c0.1,0.1,0.23,0.02,0.26-0.08l0.04,0.08c0.08,0.14,0.34,0.15,0.4-0.02
		c0.04-0.11,0.04-0.21,0.02-0.31c0.06,0.15,0.06,0.3-0.04,0.42c-0.12,0.16-0.04,0.45,0.2,0.42c0.29-0.04,0.44-0.19,0.5-0.38
		l0.09,0.11l0.25,0.03l0.04,0.06c0.04,0.11,0.15,0.2,0.27,0.18c0.34-0.05,0.35-0.29,0.25-0.53l0.09,0.09
		c0.05,0.09,0.11,0.18,0.17,0.25c0.07,0.12,0.12,0.25,0.14,0.4c0.02,0.13,0.18,0.25,0.3,0.16c0.14-0.11,0.2-0.24,0.2-0.38
		c0.13,0.04,0.27,0.06,0.4,0.09c0.08,0.07,0.17,0.1,0.27,0.04l0.15,0c0.16,0.01,0.32,0.01,0.48,0h0.06l0.11-0.01
		c0.18-0.01,0.35-0.03,0.53-0.06c0.2,0.21,0.54,0.14,0.65-0.08c0.11-0.02,0.21-0.02,0.32-0.04l0.01,0.01
		c0.13,0.11,0.33,0.08,0.42-0.06c0.13-0.01,0.27-0.04,0.41-0.05l0.01,0.01l-0.06,0.1l0.12,0.11l0.06-0.08l0.05,0.06
		c0.21,0.19,0.5,0.01,0.5-0.24v0l0.25-0.01c0.11,0.11,0.28,0.17,0.36,0.06l0,0.01l0.02-0.08c0.17,0,0.33-0.01,0.5-0.01l0.06,0.04
		l0.11-0.05c0.17,0,0.35-0.01,0.52-0.02l0,0c0.08,0.13,0.24,0.11,0.32,0.01c0.32,0.24,0.86,0.3,1.2,0.29l0.15-0.1l0.14,0.04
		c0.15,0.07,0.26-0.05,0.24-0.19l0.05-0.01c0.22,0.14,0.52,0.18,0.77,0.11l0.24,0.03c0.12,0.01,0.17-0.13,0.07-0.2l-0.12-0.07
		l-0.08-0.07l0.18-0.02l0.2,0.12c0.08,0.14,0.17,0.29,0.28,0.42c0.16,0.2,0.46,0.01,0.34-0.22c-0.06-0.12-0.13-0.24-0.2-0.36h0.01
		c0.17,0.17,0.34,0.32,0.55,0.45l0.11-0.15l-0.22-0.18l0.2,0.08l0.09,0.01c0.05,0.13,0.18,0.24,0.35,0.17l0.11-0.07
		c0.1,0.1,0.2,0.2,0.28,0.31c0.08,0.1,0.25,0,0.17-0.11c-0.08-0.11-0.18-0.22-0.27-0.32c0.12-0.1,0.23-0.2,0.33-0.31l-0.01,0.03
		c0,0.14,0.14,0.23,0.27,0.22c0.21,0.19,0.45,0.36,0.7,0.5l0.08-0.12l-0.07-0.07l0.03,0.02l0.05,0.04v0c0.13,0.07,0.28,0,0.34-0.13
		c0.08-0.09,0.1-0.22,0-0.31l-0.16-0.13l0.16,0c0.02,0.13,0.11,0.24,0.25,0.29c0.18,0.06,0.43,0.07,0.7,0.05
		c0.03,0.09,0.08,0.17,0.2,0.18c0.42,0.05,0.8-0.08,1.19-0.22c0.13-0.05,0.26-0.1,0.39-0.15l-0.02,0.05
		c-0.02,0.09,0.03,0.18,0.11,0.23l-0.05,0.05c-0.11,0.13-0.05,0.33,0.12,0.36c0.33,0.08,0.65-0.08,0.95-0.21
		c0.28-0.12,0.56-0.24,0.84-0.39l0.09-0.2l0.1-0.15c0.29,0.1,0.58,0.11,0.81-0.1l0,0c0.07,0.06,0.15,0.11,0.26,0.08
		c0.21-0.06,0.3-0.05,0.46-0.22l0.08-0.17l0.02,0.04c0.15,0.25,0.46,0.19,0.61,0.01c0.03,0.22,0.26,0.43,0.49,0.33l0.14-0.08
		l0.24-0.08l0,0l0.12-0.05l0.14-0.16l0.09-0.07l0.11-0.04l0,0.05c0.03,0.3,0.45,0.34,0.53,0.06l0.02,0l0.18,0.04l0.14-0.08
		c-0.07,0.13-0.03,0.29,0.08,0.39c-0.24,0.03-0.48,0.07-0.71,0.14c-0.12,0.04-0.09,0.23,0.04,0.22c1.21-0.14,2.44-0.11,3.63-0.31
		c0.1-0.02,0.1-0.18-0.01-0.17c-0.22,0.02-0.45,0.04-0.68,0.04c0.28-0.04,0.55-0.07,0.83-0.12l0.01,0.18
		c-0.1,0.06-0.21,0.12-0.3,0.2c-0.09,0.07-0.01,0.21,0.1,0.15c0.11-0.06,0.22-0.11,0.34-0.16l0.21,0.06
		c0.57-0.01,1.17-0.03,1.73-0.16c0.36-0.05,0.72-0.11,1.08-0.17c0.89,0.1,1.76,0.17,2.64-0.03c0.36-0.08,0.34-0.61,0.03-0.74
		c0.04-0.1-0.01-0.24-0.13-0.27c-0.41-0.1-0.9,0.01-1.34,0.07l0.01-0.01c0.17-0.13,0.11-0.41-0.13-0.41c-0.16,0-0.34,0.04-0.52,0.09
		l-0.01-0.03c0.05-0.1,0.06-0.22-0.04-0.29l-0.09-0.05c-0.03-0.08-0.11-0.16-0.21-0.12l-0.06,0.04c-0.09,0-0.19,0-0.28,0.03
		c0.05-0.11-0.01-0.25-0.14-0.28l-0.07-0.01l-0.03-0.03l-0.19-0.06c-0.1-0.11-0.25-0.16-0.41-0.1c0.07-0.12,0.02-0.29-0.13-0.33
		c-0.26-0.07-0.51-0.02-0.74,0.08l-0.07-0.01l-0.14,0.02c0.09-0.1,0.17-0.2,0.22-0.31c0.12-0.25-0.11-0.49-0.37-0.43
		c-0.15,0.03-0.28,0.13-0.42,0.24h-0.14l-0.01,0.01c-0.04-0.1-0.13-0.18-0.24-0.16c-0.29,0.05-0.52,0.23-0.72,0.45
		c-0.12,0.06-0.23,0.14-0.35,0.21c0.28-0.41,0.6-0.78,0.87-1.19c0.12-0.19-0.17-0.38-0.31-0.22c-0.21,0.24-0.41,0.51-0.58,0.79
		l0.01-0.19c0.14-0.27,0.29-0.56,0.27-0.81c-0.02-0.15-0.17-0.28-0.33-0.23c-0.14,0.05-0.24,0.16-0.32,0.29l-0.15-0.1l-0.03-0.01
		c-0.08-0.31-0.31-0.75-0.59-0.75c-0.09-0.16-0.2-0.29-0.37-0.35c-0.1-0.03-0.24,0.04-0.29,0.13c-0.16,0.37,0.11,0.94,0.22,1.39
		l-0.1,0.15l-0.02,0.01c0.03-0.43-0.09-0.85-0.42-1.2l-0.26-0.08l-0.02,0c-0.07-0.13-0.16-0.25-0.26-0.36
		c-0.08-0.08-0.25-0.12-0.36-0.08c-0.54,0.22,0.01,0.85,0.16,1.22l-0.06,0.25c-0.12-0.28-0.28-0.54-0.48-0.76
		c-0.09-0.1-0.21-0.06-0.29,0.01c-0.15-0.16-0.32-0.26-0.53-0.22l-0.05-0.07c-0.13-0.14-0.34,0.05-0.25,0.2
		c0.15,0.23,0.29,0.48,0.41,0.73c-0.17,0.08-0.29,0.24-0.37,0.44c-0.19-0.14-0.38-0.3-0.54-0.46l-0.11-0.13l-0.02-0.01
		c-0.55-0.58-0.97-1.28-1.29-2.05c-0.91-2.16-0.99-4.59-1.32-6.89c-0.75-5.27-0.57-10.45-0.07-15.73c0.15-1.59,0.37-3.64,1.39-4.98
		l0.08-0.11c0.26-0.32,0.6-0.57,0.97-0.78c0.27,0.04,0.54,0.01,0.8-0.17c0.1-0.07,0.16-0.16,0.2-0.25l0.04-0.01l0.2-0.05
		c0.15-0.04,0.31-0.07,0.46-0.1l0.22-0.03c0.16-0.02,0.31-0.04,0.47-0.06l0.19-0.02l0.06,0c0.21,0.03,0.4,0.03,0.56-0.02
		c0.39-0.01,0.78-0.02,1.18-0.02c0.24,0,0.48,0,0.72,0c0.14,0.06,0.28,0.11,0.4,0.13c0.25,0.04,0.56,0.01,0.75-0.16l0.04,0
		l0.14,0.18c0.27,0.23,0.53,0.28,0.75,0.19c0.46,0.44,1.1,0.71,1.52,0.28c0.46,0.18,0.95,0.31,1.38-0.01
		c0.32-0.23,0.29-0.58,0.18-0.92c0.15,0.01,0.3,0.01,0.45-0.02c0.75,0.39,2.1,0.8,2.15-0.1c0.02-0.33-0.17-0.33,0.01-0.64
		c0.06-0.11,0.21-0.12,0.37-0.1l0.06,0.12c0.14,0.21,0.33,0.36,0.55,0.49c0.18,0.1,0.43,0.11,0.62,0.03
		c0.28-0.13,0.25,0.11,0.38,0.37c0.23,0.44,0.69,0.7,1.17,0.7c0.53,0,1.06-0.04,1.29-0.59c0.08-0.2,0-0.44-0.07-0.63
		c-0.05-0.15-0.1-0.34-0.07-0.5c0.02-0.1,0.12-0.43,0.18-0.16c0.11,0.5,0.72,0.95,1.23,0.8c0.19-0.05,0.44-0.19,0.64-0.16
		c0.14,0.02,0.27,0.12,0.41,0.16c0.19,0.05,0.42,0.11,0.61,0.01l0.17-0.11l0.07-0.08l0.05-0.06l0.07-0.14l0.01-0.02l0.05-0.21
		c0.04-0.23-0.28-0.51-0.1-0.69l0.02,0.02c0.1,0.12,0.2,0.24,0.3,0.36c0.41,0.47,0.97,0.9,1.51,0.64c0.58,0.36,1.43,0.52,1.9,0
		c0.32-0.35,0.38-0.79,0.17-1.21c-0.15-0.3-0.23-0.33,0.13-0.37c0.21-0.02,0.37-0.07,0.54-0.2c0.21-0.16,0.21-0.44,0.05-0.64
		c-0.17-0.2-0.71-0.49-0.52-0.75l0.06,0.08c0.43,0.52,1.03,0.62,1.67,0.71c0.2,0.03,0.44-0.14,0.43-0.36
		c-0.01-0.15-0.08-0.42,0.06-0.53c0.09-0.08,0.37-0.33,0.51-0.24c0.31,0.18,0.58,0.43,0.91,0.57c0.58,0.25,1.39,0.44,1.96,0.05
		c0.48-0.33,0.94-1.04,0.5-1.6C151.18,92.31,150.89,92.2,150.57,92.11z M88,90.08l-0.08,0.13l-0.04,0.06l-0.12,0.01
		c-0.02-0.13-0.07-0.26-0.14-0.37c0.13-0.02,0.27-0.1,0.39-0.17l0.03,0.17L88,90.08z M99.89,132.22c-0.05-0.13-0.1-0.27-0.17-0.39
		l0.09,0.08c0.1,0.1,0.19,0.22,0.28,0.35L99.89,132.22z M100.8,131.05l-0.15,0.05c-0.07-0.12-0.15-0.25-0.25-0.36
		c0.13,0.1,0.27,0.19,0.4,0.28L100.8,131.05z M102.2,132.18l-0.1-0.15l0.16,0.13L102.2,132.18z M104.48,131.49
		c-0.03-0.13-0.06-0.27-0.09-0.4c0.09,0.12,0.17,0.24,0.26,0.36L104.48,131.49z M106.48,129.84c-0.03-0.1-0.05-0.2-0.09-0.29
		l0.09,0.17L106.48,129.84z M115.84,74.39l-0.09,0.05l-0.01-0.02L115.84,74.39z M115.85,76.89l-0.12-0.11l0.02-0.07l0.16,0.12
		L115.85,76.89z M129.41,131.77l0.02-0.01l-0.04,0.03L129.41,131.77z M129.27,131.89l-0.07,0.13l-0.12,0.04L129.27,131.89z
		 M130.12,78.66l-0.01-0.04l0.03,0L130.12,78.66z M134.87,73.84l0.23,0c-0.02-0.08,0-0.06,0.04,0.07l0.01,0.03
		C135.06,73.89,134.97,73.86,134.87,73.84z M136.57,77.63l0.02,0.11L136.57,77.63z"></path>

</svg>
