<svg>
    
<path d="M344.42,82.17c-0.38-0.61-0.9-0.86-1.46-1.1c0.39-0.58,0.66-1.15,0.32-2.01c-0.33-0.83-1.12-1.13-1.89-1.29
		c0.05-0.22,0.11-0.41,0.13-0.65c0.04-0.46-0.17-0.91-0.41-1.27c-0.29-0.46-0.66-0.62-1.06-0.72c0.06-0.3,0.02-0.63-0.2-0.99
		c-0.12-0.19-0.26-0.34-0.42-0.47l-0.06-0.05c-0.15-0.11-0.31-0.21-0.49-0.28l-0.25-0.1l-0.05-0.02v0
		c-0.35-0.13-0.71-0.22-1.05-0.29c-0.42-0.09-0.76-0.1-1.06-0.4c-0.31-0.3-0.74-0.5-1.18-0.44c-0.72,0.11-1.05,0.75-1.14,1.44
		c-0.26-0.05-0.48-0.02-0.7,0.07c-0.07-0.24-0.22-0.49-0.4-0.75l-0.09-0.14l0.09,0.11c0.03-0.24,0.08-0.4,0.17-0.64l0.05-0.17
		c1.28-0.05,2.11-1.01,2.07-2.41h0c0.01-0.17-0.01-0.36-0.05-0.54c1.02-0.64,1.43-1.84,0.8-2.95c-0.08-0.17-0.17-0.33-0.29-0.49
		c-0.45-0.6-1.54-1.08-2.27-0.85c-0.54,0.17-0.38,0.17-0.78-0.12c0-0.12-0.01-0.23-0.03-0.34l-0.04-0.14l-0.11-0.25l-0.07-0.13
		c-0.08-0.18-0.19-0.34-0.33-0.48l-0.09,0.04l-0.23-0.17l-0.01-0.02c0.52-0.1,0.92-0.41,1.18-0.89c1.12-0.3,2.67-1.03,2.56-2.34
		c-0.07-0.89-0.5-1.41-1.07-1.72c0.73-0.78,1.26-1.72,0.83-2.73c-0.13-0.31-0.29-0.54-0.46-0.73l0.01,0l-0.06-0.07l-0.01-0.01
		c-0.14-0.15-0.3-0.25-0.47-0.34l-0.08-0.04c-0.16-0.07-0.32-0.13-0.49-0.17l-0.08-0.01c-0.14-0.03-0.29-0.05-0.44-0.07l-0.27-0.03
		c-0.15-0.01-0.3-0.02-0.45-0.04c-0.22-0.83-1-1.2-1.9-1.32c0.08-0.98-0.04-1.94-1.02-2.47c-0.86-0.47-1.82-0.39-2.63,0.11
		c-0.53-0.25-1.05-0.19-1.5,0.08l-0.07-0.12c-0.31-0.38-0.58-0.64-1.04-0.79c-0.75-0.25-1.4-0.15-1.94,0.31l-0.07-0.1
		c-0.16-0.22-0.35-0.48-0.56-0.65c-0.54-0.41-1.17-0.63-1.84-0.46c-0.81,0.19-1.53,1.05-1.81,1.83c-0.29,0.8-0.02,1.35,0.29,2.07
		c0.16,0.37-0.34,0.62-0.71,0.85c-0.09-0.16-0.2-0.31-0.33-0.45c-0.25-0.27-0.59-0.4-0.94-0.52c-0.2-0.07-0.45-0.04-0.69-0.03
		l-0.03-0.1c-0.07-0.33-0.09-0.64-0.22-0.95l-0.11-0.21c0.51-0.68,0.86-2.09,0.19-2.75c-0.87-0.87-2.43-1.28-3.6-1.35
		c-0.41-0.02-0.8,0.01-1.17,0.09c-0.22-0.07-0.45-0.13-0.68-0.17c-0.14-0.56-0.41-1.16-0.57-1.62c-0.27-0.75,0.12-1.51-0.8-1.95
		c-0.3-0.14-0.59-0.19-0.89-0.21c-0.17-0.14-0.36-0.25-0.57-0.34c0-0.08,0.01-0.17-0.02-0.26c0.09-0.45,0.17-0.91,0.02-1.36
		c-0.23-0.71-0.93-1.35-1.69-1.21c-0.48,0.08-0.82,0.42-1.1,0.85l-0.21-0.02c-0.89,0.25-1.1,0.88-0.84,1.79
		c0.16,0.57,0.02,1.35-0.55,0.65c-0.29-0.36-0.56-0.75-0.91-1.04c-0.77-0.63-2.34-0.36-3.16,0.05c-0.74,0.36-0.69,1-0.59,1.77
		c0.02,0.14,0.06,0.28,0.13,0.41c0.26,0.47,0.05,0.36-0.67-0.32c-0.11-0.29-0.23-0.61-0.39-0.88c-0.09-0.14-0.76-0.91-0.75-0.89
		c0.01-0.14,0-0.28-0.03-0.42l-0.02-0.07c-0.03-0.11-0.06-0.22-0.1-0.32l-0.04-0.08c-0.05-0.1-0.1-0.19-0.16-0.29l-0.05-0.07
		c-0.07-0.09-0.14-0.18-0.21-0.27l-0.02-0.03v0c-0.19-0.21-0.4-0.4-0.62-0.56l0-0.01c-0.14-0.09-0.26-0.19-0.38-0.27
		c-1.08-0.72-2.22-0.97-3.41-0.4c-0.6,0.29-0.77,0.91-1,1.46c-0.12-0.14-0.24-0.28-0.35-0.44c-0.38-0.54-0.54-1.28-1.31-1.37
		c-0.74-0.08-1.42,0.12-2.02,0.51c-0.3-0.27-0.65-0.46-1.04-0.58c0.21-0.5,0.37-0.99,0.16-1.61c-0.24-0.76-0.78-1.36-1.48-1.7
		c-0.66-0.33-1.56-0.58-2.28-0.31c-0.5,0.19-0.74,0.66-1.26,0.83l-0.17,0.08l0-0.01l-0.24,0.14l-0.14,0.08
		c-0.13,0.09-0.27,0.18-0.41,0.26c-0.34,0.2-0.21,0.48-0.56,0.39c-0.15-0.03-0.29-0.04-0.42-0.05l-0.05,0l-0.19,0l0.01,0.01
		l-0.23,0.01c0.04-0.1,0.07-0.21,0.09-0.32c0.14-1.19-0.77-2.08-1.8-2.31c-0.3-0.91-0.85-1.73-1.92-1.65
		c-0.94,0.08-1.52,0.71-1.55,1.54c-0.34,0.01-0.59,0.1-0.82,0.35l0-0.01l-0.06,0.06c-0.1-0.2-0.25-0.38-0.41-0.5l-0.19-0.13
		l0.07-0.09l0.08-0.08l0.01-0.01l0.07-0.08l0.01-0.01l0.12-0.16l0.04-0.06l0.08-0.15l0.03-0.06l0.04-0.22
		c0.01-0.75-0.3-1.37-0.88-1.82c-0.66-0.52-1.64-0.83-2.51-0.68c-0.15-0.23-0.33-0.42-0.57-0.56c-0.34-0.19-0.67-0.2-1.02-0.03
		c-0.16,0.08-0.26,0.29-0.39,0.4c-0.35-0.18-0.64-0.29-1.13-0.19c-0.5,0.1-0.93,0.51-1.05,1.03c-0.15,0.62-0.01,1.31,0.3,1.84
		c0.16,0.25,0.4,0.43,0.6,0.63c0.21,0.1,0.21,0.19-0.03,0.26c-0.09,0.16-0.19,0.29-0.32,0.4c-0.15-0.23-0.4-0.47-0.63-0.61
		c-0.44-0.26-0.88-0.47-1.41-0.34c-0.88,0.23-1.13,1.26-1.19,2.15c-0.14,0.03-0.27,0.07-0.39,0.12l0,0l-0.01,0l-0.06,0.03
		c-0.1,0.04-0.19,0.09-0.27,0.14l-0.12,0.09l-0.14,0.13l-0.11,0.14l-0.09,0.13l-0.08,0.17l-0.04,0.13l-0.04,0.21l-0.01,0.14v0.24
		l0.02,0.15l0.05,0.25c0.04,0.14,0.09,0.28,0.15,0.43c0.16,0.37,0.38,0.72,0.63,1.05c-0.46,0.18-0.8,0.56-0.93,1.07
		c-0.33-0.06-0.6-0.04-0.87,0.16l0.01-0.01l-0.07,0.05c-0.07-0.22-0.18-0.43-0.3-0.57l-0.15-0.16v0l-0.01-0.01l0.04-0.03l0.02-0.02
		l0.03-0.03l0.08-0.06l0.02-0.01l0.26-0.23l0.01-0.01l0.13-0.16l0.03-0.04l0.09-0.21c0.16-0.73-0.02-1.41-0.49-1.98
		c-0.55-0.65-1.45-1.17-2.33-1.22c-0.1-0.26-0.23-0.49-0.45-0.67c-0.3-0.26-0.63-0.34-1-0.25c-0.17,0.04-0.32,0.22-0.47,0.3
		c-0.29-0.26-0.56-0.43-1.07-0.44c-0.52-0.02-1.01,0.29-1.23,0.78c-0.27,0.58-0.29,1.28-0.08,1.87c0.1,0.28,0.3,0.51,0.46,0.75
		c0.19,0.15,0.16,0.23-0.08,0.25c-0.11,0.13-0.24,0.23-0.4,0.32c-0.1-0.26-0.29-0.55-0.49-0.73c-0.38-0.36-0.77-0.66-1.31-0.65
		c-0.9,0.04-1.36,0.99-1.6,1.84c-0.27,0-0.5,0.04-0.71,0.12l-0.04,0.01l-0.2,0.1l-0.12,0.06l-0.14,0.11l-0.12,0.12l-0.09,0.12
		l-0.1,0.17l-0.06,0.13L248,40.45l-0.03,0.13c-0.01,0.1-0.02,0.2-0.02,0.31l0,0.11c0.01,0.15,0.02,0.31,0.06,0.48
		c0.2,0.95,0.7,1.89,1.33,2.63c-0.24,0.28-0.41,0.6-0.49,0.97c-0.42-0.2-0.83-0.48-1.29,0.04c-0.4,0.46-0.46,1.09-0.85,1.57
		c-0.55,0.68-0.52,1.56-0.22,2.36c-0.42-0.03-0.82,0.12-1.14,0.67c-0.18,0.3-0.29,0.67-0.35,1.08c-0.09,0.06-0.17,0.13-0.23,0.23
		c-0.24,0.39-0.16,0.77,0.07,1.07c-0.09,0.1-0.14,0.22-0.18,0.33c-0.21-0.04-0.44-0.05-0.69,0c-0.34,0.08-0.54,0.23-0.79,0.49
		L243.12,53c-0.3-0.23-0.67-0.31-1.07-0.17c-0.54-0.42-1.23-0.55-1.88-0.27c-0.73,0.3-0.88,0.97-0.91,1.68
		c-0.63,0.03-1.22,0.24-1.44,0.81c-0.11,0-0.23-0.01-0.34-0.01h-0.17c-0.11,0-0.21,0.01-0.31,0.02l-0.09,0.01
		c-0.11,0.01-0.22,0.04-0.32,0.08l-0.11,0.04c-0.1,0.04-0.2,0.1-0.29,0.17l-0.04,0.02l-0.01,0.01l-0.01,0.01l-0.05,0.04l0.01,0
		c-0.13,0.12-0.26,0.28-0.38,0.49c-0.38,0.68-0.04,1.4,0.41,2.01c-0.43,0.18-0.77,0.52-0.88,1.16c-0.17,0.93,0.9,1.56,1.69,1.87
		c0.14,0.35,0.42,0.62,0.78,0.73l-0.01,0.01l-0.17,0.1l-0.06-0.03c-0.1,0.08-0.18,0.18-0.25,0.29l-0.02,0.03l-0.04,0.06l-0.12,0.22
		l-0.03,0.07l-0.05,0.25c-0.29,0.17-0.2,0.19-0.57,0.03c-0.51-0.22-1.31,0.04-1.68,0.44c-0.1,0.11-0.18,0.22-0.24,0.34
		c-0.52,0.75-0.29,1.64,0.38,2.16c-0.04,0.13-0.06,0.26-0.07,0.39h0c-0.13,1.09,0.5,1.86,1.54,1.88c-0.11,0.05-0.22,0.12-0.31,0.21
		c-0.24,0.22-0.5,0.22-0.81,0.27c-0.13,0.02-0.28,0.04-0.42,0.08l0,0c-0.14,0.03-0.27,0.07-0.41,0.11l0-0.01l-0.11,0.04l-0.1,0.04
		c-0.13,0.05-0.25,0.12-0.37,0.19l-0.1,0.08c-0.12,0.09-0.23,0.19-0.32,0.32c-0.18,0.28-0.21,0.53-0.18,0.75
		c-0.3,0.07-0.58,0.19-0.83,0.53c-0.19,0.27-0.36,0.61-0.35,0.96c0.01,0.19,0.05,0.34,0.09,0.5c-0.6,0.09-1.2,0.29-1.48,0.93
		c-0.29,0.65-0.09,1.09,0.2,1.55c-0.44,0.16-0.85,0.34-1.16,0.79c-0.57,0.86,0.11,1.88,0.81,2.34c0.84,0.54,1.96,0.2,2.77-0.19
		c0.47-0.23,0.82-0.63,1.24-0.91c0.2-0.13,0.62,0.22,0.74,0.33c0.2,0.17,0.11,0.56,0.11,0.8c-0.01,0.31,0.35,0.55,0.61,0.5
		c0.91-0.18,1.75-0.36,2.32-1.16l0.1-0.13c0.27,0.38-0.48,0.84-0.7,1.15c-0.22,0.32-0.2,0.73,0.11,0.95
		c0.25,0.17,0.48,0.24,0.77,0.25c0.51,0.04,0.4,0.1,0.21,0.55c-0.28,0.64-0.16,1.29,0.31,1.78c0.69,0.74,1.88,0.44,2.68-0.12
		c0.69,0.32,1.37-0.17,1.89-0.79c0.2,0.16,0.4,0.3,0.6,0.45l0.01,0.04l0,0.01l0.04,0.09c0.09,0.21,0.24,0.38,0.48,0.5
		c0.15,0.08,0.31,0.08,0.48,0.06c0.19,0.12,0.38,0.22,0.58,0.3c0.15,0.95,0.73,1.87,1.58,2.17c1.18,0.42,2.81-0.04,3.67-1.06
		c0.19,0.1,0.38,0.18,0.57,0.25l0.02,0.01l0,0c0.54,0.17,1.05,0.13,1.29-0.34c0.57,0.1,1.17,0.2,1.64-0.17
		c0.76-0.57,0.46-1.54,0.02-2.2c0.12,0.18,0.65-0.12,0.8-0.14l0.17-0.02l0.1,0.06c0.29,0.25,0.57,0.54,0.9,0.72
		c0.64,0.35,1.13,0.37,1.57,0.06c0.47,0.44,1,0.8,1.58,0.75c0.18,0.02,0.36,0.03,0.55,0.08c0.22,0.16,0.45,0.27,0.68,0.33
		c0.28,0.12,0.55,0.22,0.83,0.31c0.19,0.2,0.4,0.36,0.64,0.46c0.13,0.09,0.27,0.16,0.42,0.21c0.1,0.03,0.2,0.05,0.3,0.08
		c0.11,0.39,0.23,0.76,0.52,1.06c0.35,0.37,0.71,0.47,1.03,0.36c0.6,0.71,1.48,1.18,2.11,0.59c0.34,0.18,0.7,0.33,1.05,0.36
		c0.42,0.55,0.81,1.13,1.17,1.71c0.46,1,0.88,2,1.44,2.93c0.13,0.23,0.26,0.47,0.39,0.71l0.02,0.11l0.12,0.2
		c0.18,0.42,0.38,0.82,0.63,1.19c0.69,1.56,1.37,3.13,2.14,4.63c0.31,0.73,0.71,1.42,1.17,2.06c0.29,0.45,0.58,0.89,0.9,1.31
		c0.26,0.34,0.54,0.66,0.81,0.98c0.41,0.62,0.84,1.25,1.4,1.6c0.39,0.38,0.8,0.74,1.22,1.1c0.53,0.52,1.08,1.04,1.6,1.58
		c0.24,0.24,0.47,0.49,0.71,0.75c0.21,0.28,0.41,0.57,0.57,0.89c0.17,0.32,0.31,0.65,0.52,0.93c0.25,0.73,0.41,1.5,0.54,2.27
		c0.13,0.79,0.35,1.54,0.54,2.3c0,0.17,0.02,0.33,0,0.5c-0.05,0.5-0.08,1.01-0.11,1.52c-0.12,0.48-0.26,0.95-0.41,1.42
		c-0.22-1.09-0.93-2.15-1.33-3.07l-0.05-0.02c-0.05-0.19-0.09-0.39-0.12-0.59c-0.01-0.09-0.14-0.08-0.16,0.02
		c-0.06,0.66,0.04,1.25,0.18,1.84c-0.11-0.15-0.23-0.29-0.34-0.45l-0.12,0.09c0.2,0.57,0.35,1.12,0.66,1.62
		c0.09,0.24,0.19,0.48,0.24,0.75c0.14,0.73,0.07,1.44,0.12,2.17l-0.04,0.24c-0.1,0.36-0.24,0.7-0.42,1.03l-0.03,0.06
		c-0.65,1.14-1.7,2.12-2.32,3.2c-0.54,0.93-2.53,5.6-2.86,6.63c-0.12,0.36-0.23,0.73-0.33,1.09l-0.23-0.19l-0.04-0.05l-0.66-0.1
		c-0.13-0.03-0.34-0.09-0.46-0.07l0,0h0h-0.01c-0.12,0.04-0.24,0.08-0.37,0.12l-0.56,0.18l-0.11,0.03l-0.14,0.05l-0.21,0.07
		l-0.08,0.15l-0.09,0.12l-0.13,0.15c-0.11,0.12-0.21,0.25-0.31,0.38l-0.17,0.18l-0.25,0.25l0,0.02l-0.14,0.14v0l-0.01,0.01
		l0.03,0.03h0c0.21,0.36,0.39,0.74,0.57,1.12c0.25,0.13,0.51,0.23,0.76,0.33l0.16,0.07l2.96-0.17l0.13-0.12l0.05-0.05l0.06-0.06
		l0.14-0.11l0.38,0.44l0.01,0l0,0c0.42,0.11,0.85,0.19,1.28,0.26l0.02,0l0.06-0.01v0l3.63-0.59l0,0l0.05-0.01v0l0.02,0l0.23-0.04
		l0.13-0.12l0.12-0.11l0.06-0.05c0.13-0.11,0.38-0.26,0.46-0.4l0.09,0.18l0.19,0.37l0,0v0l0.17,0.07c0.17,0.08,0.34,0.16,0.52,0.22
		l0.04,0l0,0l2.02-0.11v0l0.17-0.01l0.16-0.15l0.02-0.01c0.08-0.07,0.24-0.17,0.29-0.26c0.04-0.08,0.11-0.44,0.09-0.6l0.01-0.05
		l-0.3-0.3l-0.41-0.41c-0.1-0.1-0.27-0.34-0.42-0.42l-0.03-0.03l-0.03,0l0,0v0l-0.01,0v0c-0.14-0.02-0.28-0.04-0.42-0.06
		c-0.09-0.01-0.25-0.06-0.35-0.05l-0.02,0l-0.63,0.19l-0.04,0.01l-0.12,0.03l-0.12,0.04l-0.01,0v0l-0.01,0l-0.12,0.04l-0.03,0.05
		c-0.12-0.15-0.29-0.48-0.42-0.61l-0.02-0.03l-0.03-0.01l-0.01-0.01c-0.13-0.06-0.25-0.14-0.36-0.18l-0.14-0.07l-0.16,0.06h0
		c-0.14,0.05-0.28,0.1-0.42,0.15l-0.21,0.08c-0.03-0.15-0.05-0.31-0.05-0.47c0.28-1.31,0.76-3.05,1.12-4.46
		c0.36-0.84,0.67-1.58,0.67-1.7l0.09-0.08c0.17-0.65,0.35-1.29,0.52-1.94c0.04-0.12,0.07-0.24,0.08-0.32
		c0.26-0.65,0.51-1.34,0.63-1.92c0.1-0.16,0.21-0.34,0.3-0.5c0.46-0.69,0.85-1.52,0.86-2.34c0.08-0.21,0.1-0.43,0.06-0.7
		c-0.02-0.13-0.01-0.26-0.01-0.39c0.04-0.46,0.07-0.92,0.08-1.39c0.09-0.69-0.01-1.5-0.06-2.09c0.19-0.46,0.27-0.97,0.28-1.48
		c0.02-0.8-0.14-1.6-0.04-2.41c0.12-0.89,0.32-1.75,0.44-2.63c0.25-1.86,1.42-3.27,1.81-5.08c0.15-0.7,0.29-1.37,0.46-2.01
		c0.69-1.95,2.06-3.63,3.37-5.13c0.57-0.66,0.96-1.38,1.28-2.14c0.54-0.99,0.96-2.03,1.31-3.16c0.04-0.14,0.09-0.3,0.14-0.48
		c0.75,0.81,1.77,1.31,2.52,0.61c0.79,0.41,1.63,0.71,2.45,0.18c0.15-0.1,0.26-0.21,0.34-0.34l0.15,0.06
		c0.61,0.17,1.47,0.08,1.64-0.7l0.02-0.14c1.25,0.6,2.73,0.93,2.9-0.39c0.07-0.57-0.21-0.64,0.06-1.11c0.26-0.05,0.52-0.11,0.78-0.2
		c0.26,0.06,0.53,0.16,0.72,0.17c0.55,0.05,0.97-0.13,1.23-0.49c0.54,0.42,1.1,0.57,1.62,0.45c0.32,0.24,0.68,0.4,1.03,0.46l0,0.1
		c0.05,0.26,0.1,0.48,0.22,0.72c0.22,0.43,0.54,0.75,0.93,1.02c0.32,0.23,0.78,0.28,1.14,0.14c0.53-0.2,0.44,0.25,0.66,0.77
		c0.35,0.87,1.15,1.45,2.04,1.53c0.97,0.08,1.97,0.08,2.47-0.94c0.19-0.37,0.06-0.86-0.02-1.23c-0.08-0.3-0.13-0.68-0.05-0.99
		c0.04-0.17,0.29-0.8,0.36-0.27c0.11,0.98,1.17,1.94,2.15,1.73c0.35-0.07,0.83-0.3,1.19-0.22c0.27,0.05,0.48,0.28,0.73,0.37
		c0.34,0.13,0.77,0.27,1.12,0.1c0.38-0.17,0.59-0.41,0.72-0.74c0.05-0.12,0.09-0.24,0.12-0.38c0.09-0.44-0.44-1.03-0.09-1.35
		l0.02,0.04c0.18,0.24,0.35,0.49,0.51,0.73c0.7,0.98,1.68,1.9,2.7,1.47c1.02,0.77,2.56,1.22,3.5,0.29c0.63-0.62,0.82-1.46,0.49-2.31
		c-0.25-0.61-0.4-0.67,0.29-0.7c0.38-0.02,0.68-0.08,1.02-0.3c0.42-0.27,0.47-0.82,0.18-1.23c-0.28-0.42-1.23-1.06-0.84-1.53
		l0.1,0.17c0.71,1.07,1.81,1.34,2.98,1.63c0.36,0.09,0.83-0.21,0.83-0.62c0.01-0.3-0.07-0.82,0.19-1.03
		c0.17-0.13,0.71-0.56,0.97-0.39c0.54,0.4,1,0.92,1.58,1.25c1.03,0.56,2.51,1.07,3.61,0.39C344.21,84.63,345.14,83.32,344.42,82.17z
		 M238.11,68.72L238,68.87l-0.07,0.09l-0.16,0c-0.02-0.2-0.07-0.39-0.15-0.57c0.19-0.02,0.4-0.12,0.57-0.21
		c0,0.04,0.01,0.12,0.03,0.25C238.22,68.54,238.17,68.63,238.11,68.72z M244.34,80.22l-0.23-0.2l0.16-0.22l0.02-0.03
		C244.42,79.9,244.39,80.06,244.34,80.22z M251.14,56.24l-0.12,0c0.04-0.08,0.09-0.15,0.19-0.2c0.21-0.11,0.33,0.09,0.42,0.33
		C251.47,56.31,251.31,56.26,251.14,56.24z M277.42,132.36l-0.04-0.04l0.01-0.02l0.08-0.01L277.42,132.36z M290.68,84.96
		c-0.04,0.16-0.07,0.33-0.11,0.49l0-0.02C290.6,85.26,290.63,85.11,290.68,84.96L290.68,84.96z M288.2,84.16
		c0.55,0.39,1.15,0.6,1.81,0.37c0.21,0.17,0.43,0.3,0.65,0.41c-0.19,0.75-0.37,1.51-0.6,2.24c-0.39,1.09-0.92,2.17-1.58,3.06
		c0.09-0.43,0.14-0.88,0.12-1.32l-0.02-0.23c0.03-0.49,0-0.98-0.12-1.52c-0.23-0.91-0.67-1.73-0.99-2.6
		C287.8,84.58,288.06,84.45,288.2,84.16z M287.4,84.58c0.07,0.3,0.14,0.59,0.21,0.89c-0.16-0.3-0.32-0.6-0.47-0.91L287.4,84.58z
		 M281.41,85.85l0.05,0.01c-0.03,0.11-0.06,0.22-0.1,0.33C281.39,86.07,281.41,85.96,281.41,85.85z M281.17,87.59
		c0.15-0.57,0.33-1.11,0.46-1.67l0.01-0.03c0.54,0.06,1.07,0.05,1.53-0.29c0.12-0.09,0.22-0.2,0.3-0.31
		c0.27,0.01,0.54-0.04,0.81-0.21c0.48-0.3,0.47-0.82,0.35-1.33c0.2,0.03,0.41,0.04,0.64,0.03c0.22,0.15,0.49,0.3,0.77,0.43
		c0.35,0.87,0.82,1.68,1.17,2.55c0.1,1.1,0.45,2.18,0.25,3.32c-0.05,0.31-0.13,0.62-0.21,0.93c-0.07,0.24-0.15,0.48-0.22,0.72
		c-0.07,0.22-0.16,0.46-0.21,0.71c-0.33,0.53-0.61,1.09-0.79,1.72c-0.12,0.45-0.22,0.98-0.34,1.5c-0.16,0.41-0.27,0.84-0.41,1.26
		c-0.21,0.46-0.5,0.85-0.93,1.08l-0.13,0.07c0.21-0.58,0.51-1.23,0.43-1.84c-0.08-0.65-0.38-1.07-0.73-1.52
		c-0.46-0.94-1.2-1.75-1.84-2.51l-0.17-0.21c-0.08-0.14-0.15-0.29-0.22-0.44l0.01-0.1c-0.03-0.3-0.11-0.57-0.2-0.83
		c-0.01-0.22-0.02-0.45-0.07-0.66C281.19,89.11,280.96,88.46,281.17,87.59z M281.08,89.62l-0.06-0.14
		c-0.12-0.33-0.16-0.66-0.14-0.99C280.91,88.88,280.99,89.25,281.08,89.62z M279.36,86.19l0.11,0.05l-0.01-0.01
		c0.21,0.07,0.41,0.11,0.6,0.11c-0.07,0.23-0.14,0.45-0.18,0.68c-0.05,0.32-0.09,0.63-0.13,0.96c-0.21-0.44-0.47-0.84-0.7-1.28
		c-0.13-0.25-0.22-0.51-0.3-0.77C278.96,86.03,279.16,86.12,279.36,86.19z M280.89,101.14l-0.1,0.21l0.02-0.08l0-0.05l0.1-0.21
		L280.89,101.14z M281.58,99.28c-0.27,0.3-0.5,0.59-0.7,0.97c-0.1,0.19-0.14,0.42-0.22,0.61c-0.13,0.27-0.29,0.43-0.48,0.65
		c-0.09,0.1-0.03,0.24,0.08,0.24v0l0.02,0.07l-0.14-0.14c-0.39-0.3-0.79-0.52-1.17-0.8c-0.76-0.66-1.37-1.54-1.94-2.39
		c-1.29-1.89-2.34-3.92-3.46-5.93c-0.5-0.9-1.18-1.79-1.5-2.8c-0.27-0.89-0.35-1.88-0.75-2.73c-0.48-1-1.27-1.72-2.14-2.35
		l-0.04-0.26c0.21,0.03,0.42,0.04,0.64,0.03c0.73,0.48,1.87,0.99,2.53,0.76c0.32,0.92,0.95,1.73,1.81,2.03
		c1.12,0.4,2.58,0.16,3.69-0.55c0.1,0.31,0.24,0.61,0.41,0.88c0.45,0.99,1.02,1.91,1.6,2.84c0.02,0.25,0.06,0.49,0.12,0.72
		c0.05,0.23,0.11,0.45,0.21,0.65c0.16,0.39,0.35,0.76,0.57,1.11c0.34,0.6,0.76,1.15,1.2,1.7c0.23,0.32,0.44,0.65,0.63,1.01
		l0.06,0.12c0.13,0.65,0.09,1.3-0.25,1.94C282.09,98.2,281.85,98.75,281.58,99.28z M288.39,101.59l-0.08,0.2l-0.14,0.21
		c0.05-0.13,0.1-0.25,0.14-0.39c0.16-0.66,0.32-1.3,0.51-1.92C288.69,100.33,288.59,100.98,288.39,101.59z M294.42,90.55
		c-0.28,0.63-0.62,1.2-1.01,1.75c-1.28,1.35-2.61,2.57-3.56,4.23c-0.23,0.39-0.41,0.79-0.55,1.2c-0.15,0.28-0.28,0.57-0.39,0.87
		c-0.4,1.06-0.44,2.19-0.79,3.27c-0.06,0.2-0.15,0.39-0.24,0.57c-0.51,0.67-1.03,1.33-1.31,2.15c-0.24,0.72-0.34,1.45-0.4,2.2
		c-0.04,0.23-0.07,0.47-0.11,0.7l-0.12,0.1c-0.14,0.46-0.21,0.91-0.24,1.38c-0.2-0.52-0.46-1-0.76-1.47l-0.09-0.23
		c-0.42-0.93-0.99-1.75-1.64-2.48c-0.22-0.43-0.4-0.88-0.51-1.37l-0.05-0.01c-0.07-0.32-0.09-0.62,0.06-0.87
		c0.13-0.22,0.2-0.49,0.27-0.76c0.34-0.64,0.88-1.24,1.27-1.79c0.31-0.43,0.73-0.75,1.11-1.11c0.23-0.16,0.44-0.34,0.62-0.58
		c0.38-0.52,0.56-1.13,0.7-1.76c0.2-0.85,0.62-1.6,0.87-2.44c0.13-0.46,0.17-0.96,0.29-1.43c0.37-0.55,0.79-1.07,1.25-1.62
		c0.8-0.98,1.28-2.37,1.71-3.58c0.26-0.75,0.45-1.51,0.61-2.29c0.16,0.02,0.32,0.01,0.48-0.02c0.47,0.7,1.15,1.12,1.96,1.12
		c0.14,0.54,0.29,1.09,0.69,1.5c0.17,0.18,0.34,0.29,0.52,0.38C294.89,88.98,294.74,89.8,294.42,90.55z M306.32,86.4l0.12-0.08
		l0.25,0.02C306.56,86.36,306.44,86.38,306.32,86.4z"></path>

</svg>
