<svg>
    
<path d="M226.46,48.63c0.01-0.58-0.3-1.02-0.77-1.33l-0.17-0.11l0,0c-0.11-0.06-0.22-0.12-0.34-0.16l0.01,0l-0.03-0.01l-0.23-0.05
		l-0.12-0.02c-0.12,0-0.23,0.02-0.34,0.08l-0.49-0.16c-0.13-0.02-0.28-0.01-0.42-0.01c-0.4-0.17-0.48-0.25-0.25-0.22l0.18-0.02
		c0.33-0.09,0.58-0.18,0.59-0.55c0.01-0.41-0.16-1.09-0.55-1.31c-0.18-0.09-0.38-0.14-0.57-0.2c-0.37-0.11-0.1-0.3,0.16-0.33
		c0.41-0.05,0.61-0.24,0.55-0.66l-0.05-0.08c0.12-0.19,0.19-0.39,0.13-0.6c-0.05-0.21-0.21-0.34-0.4-0.42
		c0.06-0.11,0.12-0.2,0.18-0.31c-0.04-0.11-0.12-0.21-0.18-0.32c-0.09-0.07-0.16-0.14-0.23-0.24c-0.08-0.13-0.12-0.28-0.22-0.4
		c-0.11-0.14-0.28-0.32-0.47-0.35c-0.14-0.03-0.27,0.05-0.35,0.16c-0.11,0.14-0.14,0.27-0.33,0.33c-0.1,0.04-0.22,0.02-0.32,0.07
		c-0.1,0.05-0.16,0.1-0.23,0.19l-0.16,0.19l-0.1,0.04c-0.21-0.08-0.4-0.17-0.6-0.27c-0.14,0.03-0.28,0.05-0.41,0.08l-0.06-0.17
		c-0.24-0.46-0.68-1.04-1.18-1.25c-0.38-0.16-0.87,0.23-1.04,0.55l-0.1,0l-0.19,0.02c0.08-0.1,0.12-0.22,0.09-0.4
		c-0.08-0.4-0.39-1.03-0.82-1.16c-0.19-0.05-0.4-0.05-0.6-0.07c-0.39-0.03-0.16-0.27,0.08-0.36c0.38-0.14,0.55-0.37,0.4-0.76
		l-0.06-0.07c0.08-0.21,0.1-0.42,0-0.62l-0.1-0.12c0.89,0.07,1.48-0.51,1.41-1.37l0,0c-0.01-0.09-0.02-0.19-0.04-0.29
		c0.56-0.37,0.77-1.04,0.38-1.63c-0.05-0.09-0.11-0.18-0.18-0.27c-0.28-0.32-0.91-0.54-1.32-0.4c-0.3,0.11-0.23,0.1-0.46-0.04
		c-0.01-0.11-0.03-0.2-0.07-0.29l-0.04-0.07l-0.11-0.16l-0.16-0.2l-0.05,0.02l-0.12-0.08l-0.02-0.02c0.29-0.07,0.52-0.25,0.65-0.52
		c0.63-0.2,1.5-0.64,1.4-1.35c-0.06-0.48-0.32-0.76-0.66-0.91c0.39-0.45,0.67-0.98,0.4-1.51c-0.08-0.17-0.18-0.29-0.29-0.39h0
		l0.01,0l-0.04-0.04l-0.01-0.01L217,27.76l-0.21-0.13l-0.08-0.04l-0.26-0.07l-0.03,0c-0.1-0.02-0.2-0.02-0.3-0.03l-0.09,0
		c-0.1,0-0.2-0.01-0.3-0.01c-0.04-0.12-0.11-0.22-0.19-0.3l0.02-0.01c0.89-0.62-0.06-1.74-0.57-2.55c0.25,0,0.49-0.01,0.77-0.13
		c0.24-0.1,0.16-0.48,0.06-0.65l-0.08-0.13c0.72-0.27,0.63-1.16,0.05-1.74l0.03-0.24l-0.01-0.07l0-0.05v-0.03l0,0l-0.01-0.08
		l-0.03-0.08l-0.05-0.12l-0.05-0.08l-0.07-0.1l-0.08-0.08l-0.09-0.08l-0.1-0.07l-0.1-0.07l-0.11-0.06l-0.11-0.05l-0.11-0.04
		l-0.07-0.02l0,0l-0.11-0.03c-0.04-0.32-0.18-0.62-0.49-0.82c-0.2-0.13-0.41-0.2-0.63-0.24l0.01,0l-0.04,0
		c-0.1-0.02-0.21-0.03-0.32-0.04l-0.1-0.01c-0.13-0.01-0.27-0.01-0.4-0.01l-0.22-0.01c0.16-0.08,0.32-0.17,0.41-0.3
		c0.18-0.27,0.3-0.52,0.19-0.85l-0.03-0.11l0.08-0.13c0.27-0.85-0.31-1.43-0.62-2.14c-0.21-0.48-0.21-1.08-0.81-1.29
		c-0.59-0.21-1.17-0.17-1.73,0.01c-0.19-0.26-0.45-0.47-0.73-0.63c0.26-0.35,0.47-0.7,0.41-1.21c-0.07-0.64-0.4-1.2-0.91-1.59
		c-0.48-0.38-1.16-0.73-1.79-0.66c-0.44,0.05-0.71,0.38-1.16,0.42l-0.15,0.03l0-0.01l-0.22,0.06c-0.17,0.05-0.33,0.11-0.51,0.16
		c-0.3,0.09-0.25,0.32-0.52,0.2c-0.15-0.07-0.31-0.11-0.46-0.14l-0.06-0.02l0,0.01l-0.19-0.03l0.12-0.23
		c0.32-0.89-0.25-1.74-1.05-2.11c-0.09-0.76-0.39-1.49-1.27-1.62c-0.77-0.11-1.34,0.27-1.52,0.9c-0.28-0.05-0.5-0.03-0.72,0.11l0,0
		l-0.06,0.04c-0.04-0.17-0.14-0.33-0.24-0.45l-0.13-0.13l0.03-0.02l0.02-0.02l0.03-0.02l0.08-0.05l0.01,0l0.02-0.02l0.23-0.19
		l0.03-0.03c0.07-0.08,0.13-0.16,0.16-0.26c0.14-0.58-0.01-1.11-0.39-1.57c-0.44-0.52-1.19-0.94-1.91-0.99
		c-0.08-0.2-0.2-0.39-0.37-0.53c-0.25-0.21-0.51-0.27-0.82-0.21c-0.15,0.03-0.27,0.18-0.39,0.24c-0.25-0.21-0.47-0.34-0.88-0.36
		c-0.43-0.02-0.84,0.22-1.03,0.6c-0.23,0.45-0.24,1.01-0.08,1.48c0.08,0.22,0.24,0.4,0.38,0.59c0.15,0.12,0.13,0.18-0.07,0.19
		c-0.1,0.11-0.21,0.19-0.34,0.25l-0.06-0.12c-0.04-0.23-0.19-0.41-0.38-0.51c-0.2-0.18-0.4-0.33-0.64-0.41
		c0.38-1.48,0.04-3.4-1.18-4.01c-0.29-0.14-0.57-0.17-0.82,0.05c-0.25,0.21-0.48,0.42-0.69,0.64c-0.36-0.45-1.01-0.57-1.58-0.41
		c-0.2-0.12-0.37-0.25-0.36-0.41c0.05-0.33,0.14-0.66,0.14-1c0-0.3-0.25-0.6-0.56-0.62c-0.38-0.02-0.78,0-1.09,0.23
		c-0.3,0.21-0.77,0.82-1.17,0.5c-0.27-0.21-0.55-0.31-0.9-0.29l-0.13,0.07l-0.11,0.12l-0.01,0.01l-0.02,0.02h0l-0.15,0.15
		c-0.09-0.05-0.18-0.11-0.28-0.17c-0.42-0.28-0.9-0.65-1.38-0.71v0h-0.01c-0.1-0.01-0.19-0.01-0.29,0.01
		c-0.73,0.13-0.81,1-0.62,1.56c0.12,0.34,0.04,0.46-0.21,0.47l0,0c-0.08,0-0.19,0-0.31-0.02c-0.2-0.03-0.4-0.06-0.61-0.04
		c-0.43,0.03-0.73,0.19-1.01,0.52c-0.35,0.4-0.3,0.95-0.12,1.45c-0.26-0.02-0.53-0.01-0.75,0.07c-0.46,0.16-0.8,0.36-0.94,0.71
		c-0.23-0.07-0.51,0-0.8,0.22c-0.48,0.36-0.8,0.46-1.42,0.38c-0.21-0.03-0.53-0.56-0.84-0.67c-0.17-0.06-0.35-0.11-0.53-0.07
		c-0.11,0.02-0.22,0.04-0.32,0.08l-0.12,0.04c-0.19-0.18-0.45-0.28-0.74-0.28c-0.56,0.01-1.1,0.16-1.58,0.41v0l-0.02,0.01
		c-0.17,0.09-0.33,0.19-0.49,0.3c-0.69,0.07-1.62,0.49-1.69,1.27c-0.02,0.24,0,0.44,0.07,0.67l0.01,0.06l-0.13,0.18
		c-0.19,0.27-0.28,0.51-0.29,0.8c-0.37,0.21-0.79,0.54-0.92,0.91c-0.08,0.22-0.03,0.4,0.09,0.54c-0.21,0.57-0.06,1.11,0.52,1.54
		c0.35,0.25,0.86,0.25,1.34,0.21l0.13,0.25l0.07,0.09c-0.09,0.04-0.18,0.07-0.27,0.1c-0.21,0.07-0.46,0.12-0.66,0.22
		c-0.41,0.21-0.5,0.54-0.39,0.84c-0.1,0.08-0.18,0.17-0.26,0.26c-0.49-0.29-1.1-0.47-1.67-0.42c-0.11-0.19-0.25-0.35-0.44-0.47
		c-0.27-0.17-0.54-0.19-0.84-0.08c-0.14,0.05-0.24,0.22-0.35,0.29c-0.27-0.17-0.51-0.27-0.93-0.22c-0.42,0.05-0.79,0.34-0.93,0.75
		c-0.15,0.48-0.08,1.03,0.15,1.47c0.11,0.21,0.3,0.36,0.46,0.52c0.17,0.09,0.16,0.16-0.04,0.2c-0.08,0.12-0.18,0.22-0.29,0.3
		c-0.11-0.19-0.3-0.4-0.49-0.52c-0.35-0.23-0.71-0.42-1.14-0.35c-0.73,0.13-1.01,0.93-1.1,1.63c-0.17,0.02-0.32,0.07-0.46,0.12
		l-0.16,0.07l-0.12,0.08l-0.1,0.08l-0.1,0.11l-0.08,0.09l-0.07,0.13l-0.05,0.12l-0.04,0.14l-0.02,0.14l-0.01,0.15l0.02,0.19
		l0.02,0.14c0.02,0.11,0.06,0.23,0.1,0.36c0.27,0.71,0.78,1.39,1.39,1.9c-0.17,0.25-0.27,0.51-0.29,0.81
		c-0.38-0.11-0.74-0.28-1.05,0.18c-0.28,0.4-0.26,0.91-0.52,1.32c-0.38,0.6-0.26,1.28,0.08,1.87c-0.35,0.03-0.65,0.19-0.86,0.66
		c-0.11,0.25-0.16,0.56-0.16,0.88l-0.16,0.2c-0.15,0.33-0.04,0.62,0.18,0.83c-0.15,0.22-0.19,0.46-0.12,0.7
		c-0.2,0.17-0.25,0.41-0.27,0.67c-0.45-0.45-1.04,0.06-0.6,0.55c0.16,0.18,0.21,0.49,0.25,0.8c-0.42,0.08-0.78,0.27-0.91,0.66
		c-0.11,0-0.22,0-0.33,0.01l-0.07,0c-0.11,0.01-0.22,0.01-0.33,0.03l-0.01,0c-0.1,0.02-0.19,0.05-0.28,0.08l-0.08,0.04l-0.25,0.16
		l-0.01,0.01l-0.01,0.01l-0.04,0.04l0.01,0l0,0c-0.11,0.1-0.21,0.23-0.3,0.41c-0.28,0.55,0.01,1.11,0.42,1.57
		c-0.35,0.16-0.62,0.44-0.69,0.95c-0.1,0.74,0.8,1.2,1.46,1.41c0.14,0.27,0.38,0.46,0.68,0.54l-0.02,0.02l-0.12,0.08l-0.05-0.02
		l-0.17,0.21l-0.11,0.15l-0.04,0.07c-0.04,0.09-0.06,0.19-0.07,0.3c-0.24,0.14-0.16,0.16-0.47,0.05c-0.43-0.15-1.08,0.08-1.38,0.42
		c-0.08,0.09-0.14,0.18-0.19,0.28c-0.4,0.61-0.18,1.31,0.4,1.69c-0.03,0.11-0.04,0.21-0.05,0.31l0.01,0
		c-0.07,0.93,0.59,1.55,1.57,1.42c0.2,0.26,0.47,0.38,0.85,0.33c0.16-0.02,0.32-0.11,0.46-0.19c0.01,0.04,0.02,0.1,0.04,0.2
		l-0.06,0.2l-0.11,0.16l-0.12,0.21c-0.06,0.21,0.2,0.53,0.36,0.62c0.47,0.25,0.99,0.47,1.49,0.64l0.12,0.04l-0.03,0.07
		c-0.04,0.11-0.1,0.22-0.16,0.3c-0.2,0.27-0.44,0.49-0.56,0.81c-0.19,0.49,0.27,0.86,0.68,1.01c0.7,0.24,2.02,0.19,2.64-0.42h0.02
		c-0.09,0.18-0.16,0.36-0.19,0.54c-0.27-0.17-0.68-0.19-0.9,0.07c-0.15,0.16-0.19,0.37-0.16,0.6l-0.08,0.05
		c-0.25,0.34-0.15,0.6,0.18,0.84c0.21,0.15,0.36,0.45-0.02,0.37c-0.2-0.04-0.39-0.1-0.6-0.1c-0.44,0-0.92,0.53-1.1,0.9
		c-0.17,0.33,0.01,0.53,0.26,0.76l0.16,0.1c0.21,0.08,0.11,0.11-0.32,0.08c-0.12-0.06-0.24-0.14-0.37-0.18l-0.5-0.09
		c-0.07-0.1-0.16-0.17-0.27-0.23l-0.08-0.03c-0.08-0.03-0.17-0.06-0.26-0.08l-0.02-0.01l0,0c-0.12-0.02-0.25-0.02-0.37-0.02v0
		l-0.21,0.02c-0.57,0.05-1.04,0.3-1.3,0.81c-0.24,0.45,0.26,0.88-0.02,1.29c-0.1,0.15-0.13,0.3-0.13,0.45
		c-0.12,0.13-0.23,0.27-0.29,0.43c-0.11,0.29,0.02,0.57-0.11,0.86l-0.03,0.11l-0.01,0l-0.02,0.12c-0.03,0.14-0.04,0.27-0.07,0.41
		c-0.04,0.22,0.12,0.26-0.04,0.39c-0.1,0.08-0.17,0.16-0.24,0.25l-0.02,0.03l0,0l-0.08,0.11l-0.1-0.15
		c-0.47-0.49-1.18-0.39-1.67-0.01c-0.5-0.18-1.06-0.23-1.43,0.29c-0.32,0.45-0.26,0.93,0.08,1.25c-0.12,0.16-0.18,0.31-0.15,0.5
		l-0.01-0.02l0.01,0.05c-0.12-0.02-0.26-0.01-0.37,0.01l-0.12,0.04v0l-0.01,0V55.1l-0.01-0.03l0-0.01l-0.01-0.05l0-0.02l-0.03-0.14
		l-0.02-0.07l-0.13-0.22c-0.32-0.28-0.71-0.35-1.12-0.25c-0.47,0.11-0.97,0.45-1.23,0.89c-0.15-0.01-0.31,0-0.46,0.06
		c-0.21,0.09-0.33,0.24-0.39,0.45c-0.03,0.11,0.03,0.22,0.02,0.32c-0.21,0.09-0.36,0.18-0.51,0.44c-0.15,0.26-0.13,0.6,0.05,0.84
		c0.21,0.29,0.56,0.47,0.91,0.52c0.16,0.02,0.33-0.02,0.49-0.05c0.12-0.06,0.16-0.03,0.1,0.1c0.04,0.1,0.05,0.19,0.06,0.29
		c-0.16-0.02-0.36,0.01-0.5,0.07c-0.28,0.1-0.53,0.24-0.67,0.52c-0.22,0.48,0.12,0.96,0.48,1.31l-0.08,0.26l-0.02-0.03l-0.02,0.13
		l-0.02,0.17l0.03,0.23l0.05,0.15l0.17,0.21l0.09,0.1c0.12,0.09,0.27,0.16,0.45,0.21c0.52,0.14,1.12,0.12,1.67-0.02
		c0.07,0.2,0.18,0.36,0.35,0.5c-0.22,0.17-0.46,0.31-0.33,0.68c0.12,0.33,0.42,0.52,0.55,0.84c0.19,0.47,0.63,0.68,1.11,0.73
		c-0.13,0.21-0.16,0.45,0.02,0.77c0.1,0.17,0.26,0.32,0.44,0.46l0.05,0.18l0.11,0.14l-0.06,0.04c-0.31,0.25-0.64,0.62-0.54,1.05
		c0.05,0.18,0.15,0.31,0.22,0.47l0.07,0.22l0.01,0.03c-0.09,0.29-0.3,0.7-0.15,0.97c0.21,0.39,0.49,0.55,0.92,0.63
		c-0.01,0-0.1,0.09-0.16,0.21c-0.09,0.19-0.1,0.39-0.04,0.59c0.05,0.17,0.15,0.28,0.27,0.35c-0.22,0.21-0.39,0.47-0.21,0.74
		c0.18,0.27,0.44,0.42,0.7,0.6c-0.21,0.37-0.39,0.78,0.11,1.08c0.37,0.21,0.91,0.45,1.34,0.34l0.11,0.01c0.11,0.01,0.23,0,0.35-0.02
		c0.29,0.34,0.75,0.48,1.25,0.25c0.29-0.13,0.51-0.17,0.82-0.18l0.01,0c-0.01,0.19,0.01,0.37,0.09,0.51
		c0.08,0.15,0.2,0.21,0.33,0.21c0.17,0.33,0.47,0.5,0.89,0.47c-0.04,0.18-0.2,0.34-0.29,0.49c-0.24,0.39-0.41,0.92-0.05,1.31
		c0.19,0.21,0.44,0.28,0.68,0.29c0.2,0.69,0.88,1.1,1.56,0.78c0.16,0.06,0.32,0.1,0.49,0.11c0.41,0.61,1.38,0.89,2.01,0.5
		c0.5-0.31,0.85-0.96,0.91-1.6c0.15-0.14,0.21-0.34,0.17-0.54l0.14-0.08l0.01-0.01l0,0c0.09-0.06,0.17-0.13,0.23-0.21
		c0.28,0.1,0.58,0.14,0.85-0.03c0.2-0.12,0.31-0.31,0.5-0.44c0.11-0.08,0.22-0.16,0.32-0.25c0.13-0.03,0.25-0.07,0.36-0.14
		c0.58-0.36,0.96-1.18,0.91-1.89l0.03-0.03c0.25,0.04,0.5,0,0.69-0.2c0.19-0.19,0.23-0.37,0.28-0.63c0.04-0.22,0.22-0.29,0.32-0.48
		c0.1-0.21,0.2-0.48,0.18-0.73c0.11,0.03,0.23,0.05,0.35,0.04c0.29-0.03,0.47-0.16,0.54-0.34c0.48-0.01,0.94-0.22,1.01-0.62
		c3.31,1.96,5.25,1.99,8.12,3.24c3.27,1.42,5.64,6.06,6.37,11.31c0.73,5.25,0.46,38.78,0.4,40.84c-0.04,1.54-0.35,3.41-0.61,4.83
		c0.07-0.98,0.21-1.85,0.21-1.85s-0.94,1.05-1.37,3.46c-0.93-1.89-3.01-2.89-3.01-2.89s1.33,1.4,1.77,2.82
		c-1.29-1.99-4.6-2.58-4.6-2.58s4.41,1.84,4.39,4.33c-0.14,0.41,2.62,0.91,7.05,1.1c4.44,0.18,6.56,0.36,6.89-0.34
		c0.33-0.69,1.42-2.12,3.21-2.43c-2.32,0.11-3.48,0.76-3.93,1.38c1.56-2.58,3.23-3.73,3.23-3.73s-3.11,0.18-4.69,2.59l-0.01-0.08
		c0.77-2.14,0.84-3.32,0.84-3.32l-1.05,1.8c-1.03-9.25-0.95-40.51-0.3-43.78c0.54-2.75,3.21-4.22,5.16-4.74
		c0.46,0.33,1.18,0.31,1.62-0.04c0.14,0.04,0.29,0.05,0.43,0.04c0.22,0.2,0.48,0.26,0.73,0.23l-0.21,0.06
		c-0.33,0.19-0.27,0.63-0.18,0.94c0.05,0.18,0.2,0.27,0.19,0.47c-0.01,0.24,0,0.39,0.13,0.59c0.13,0.2,0.34,0.29,0.55,0.29
		l0.13,0.21c-0.11,0.21-0.02,0.43,0.18,0.63h0l0.01,0.01l0.24,0.2c-0.24,0.62-0.04,1.47,0.43,1.91c0.36,0.34,0.96,0.37,1.42,0.17
		c-0.17,0.26-0.09,0.6,0.2,0.75c0.2,0.1,0.35,0.16,0.47,0.36c0.15,0.25,0.36,0.4,0.62,0.53c0.3,0.15,1.02,0.31,1.31,0.05
		c0.17-0.15,0.25-0.29,0.25-0.53c0-0.08-0.09-0.26,0.04-0.29l0.03,0c0.45,0.21,0.77-0.12,0.84-0.58c0.19-0.04,0.34-0.19,0.32-0.48
		c-0.01-0.14-0.05-0.29-0.09-0.42l-0.04-0.18l0.07,0.01l0.17-0.01c0.13,0.27,0.29,0.54,0.54,0.65c0.41,0.17,0.75,0.08,0.98-0.21
		c0.11,0.01,0.23-0.01,0.32-0.13l0.06-0.13c0.01,0.22,0,0.46,0.2,0.64c0.13,0.12,0.25,0.18,0.42,0.22c0.27,0.06,0.45,0.13,0.67,0.3
		c0.39,0.28,0.82,0.24,1.12,0c0.1,0.04,0.2,0.07,0.3,0.09l0.1,0.01c0.34,0.17,0.86,0.07,1.21-0.05c0.48-0.17,0.4-0.54,0.29-0.91
		c0.25-0.11,0.5-0.19,0.7-0.39c0.2-0.2,0.1-0.45-0.05-0.67c0.12-0.04,0.22-0.12,0.29-0.25c0.09-0.16,0.11-0.34,0.07-0.52
		c-0.03-0.12-0.1-0.21-0.1-0.21c0.38,0.01,0.64-0.08,0.89-0.38c0.18-0.21,0.06-0.6,0.04-0.86l0.01-0.02l0.1-0.17
		c0.09-0.13,0.21-0.22,0.28-0.37c0.17-0.35-0.06-0.72-0.28-0.99l-0.05-0.04l0.12-0.1l0.07-0.14c0.18-0.09,0.34-0.19,0.46-0.32
		c0.21-0.24,0.23-0.45,0.16-0.66c0.42,0.04,0.83-0.06,1.08-0.42c0.17-0.25,0.46-0.37,0.62-0.63c0.19-0.29,0-0.46-0.16-0.64
		c0.16-0.09,0.29-0.21,0.39-0.37c0.44,0.21,0.95,0.33,1.43,0.31c0.16-0.01,0.3-0.05,0.42-0.1l0.11-0.08l0.17-0.14l0.07-0.12
		l0.07-0.18l0.01-0.17l0.01-0.1l-0.02,0.02l-0.03-0.23c0.37-0.23,0.75-0.58,0.64-1.03c-0.07-0.27-0.27-0.42-0.49-0.56
		c-0.11-0.07-0.28-0.13-0.41-0.15l0.09-0.24c-0.03-0.12,0.01-0.14,0.1-0.07c0.13,0.05,0.27,0.12,0.41,0.13
		c0.31,0.02,0.64-0.08,0.87-0.28c0.2-0.17,0.28-0.46,0.2-0.71c-0.08-0.25-0.2-0.35-0.36-0.47c0.01-0.08,0.08-0.18,0.08-0.27
		c-0.01-0.2-0.09-0.34-0.26-0.46c-0.12-0.08-0.24-0.12-0.38-0.13c-0.15-0.43-0.52-0.8-0.9-0.99c-0.33-0.16-0.68-0.16-1,0.02
		l-0.15,0.17l-0.05,0.11l-0.03,0.07l0,0.01l-0.02,0.05l-0.01,0.02l-0.01,0.02l-0.01,0.02l-0.1-0.05c-0.09-0.04-0.2-0.07-0.31-0.07
		l0.01-0.04l-0.01,0.01c0.05-0.16,0.04-0.3-0.04-0.45c0.35-0.21,0.48-0.62,0.29-1.06c-0.22-0.5-0.71-0.56-1.17-0.49
		c-0.35-0.41-0.95-0.62-1.43-0.28l-0.12,0.11l-0.06-0.11l0.02,0c-0.05-0.1-0.1-0.19-0.18-0.28c-0.12-0.14,0.03-0.14,0.04-0.34
		l0.02-0.24v-0.09v-0.14l-0.01,0l0-0.09c-0.05-0.28,0.1-0.49,0.06-0.76c-0.02-0.15-0.09-0.29-0.17-0.42
		c0.03-0.13,0.03-0.27-0.03-0.41c-0.17-0.4,0.33-0.68,0.21-1.11c-0.14-0.49-0.5-0.78-0.98-0.92l-0.17-0.05l0,0
		c-0.11-0.03-0.21-0.04-0.33-0.05l0.01,0l-0.03,0l-0.18,0.02l-0.12,0.02c-0.1,0.03-0.19,0.07-0.26,0.15l-0.44-0.01
		c-0.12,0.02-0.24,0.06-0.36,0.09c-0.38-0.05-0.46-0.09-0.26-0.12l0.15-0.06c0.22-0.14,0.39-0.28,0.36-0.53
		c0.43-0.05,0.85-0.26,1.1-0.59c0.17,0,0.33-0.03,0.49-0.08c0.65,0.35,1.37-0.01,1.6-0.68c0.25,0.01,0.5-0.05,0.7-0.25
		c0.38-0.37,0.24-0.9,0.02-1.31c-0.08-0.15-0.23-0.32-0.26-0.5c0.41,0.06,0.72-0.09,0.92-0.42c0.13,0,0.25-0.05,0.34-0.19
		c0.15-0.24,0.14-0.62,0.09-0.91l0.04-0.05l0.09,0.09c0.16,0.11,0.31,0.17,0.51,0.18c0.32,0.02,0.53,0.08,0.81,0.22
		c0.49,0.26,0.96,0.14,1.27-0.18c0.12,0.03,0.24,0.04,0.35,0.05l0.11,0c0.42,0.14,0.98-0.06,1.36-0.26
		c0.52-0.26,0.37-0.68,0.17-1.07c0.26-0.17,0.53-0.3,0.73-0.56c0.19-0.25,0.04-0.52-0.16-0.74c0.12-0.07,0.22-0.17,0.29-0.34
		c0.07-0.19,0.07-0.4,0-0.59c-0.05-0.13-0.14-0.22-0.14-0.22c0.43-0.05,0.72-0.2,0.95-0.57c0.16-0.27-0.03-0.69-0.1-0.98l0.01-0.03
		l0.09-0.21c0.08-0.16,0.19-0.28,0.25-0.46c0.13-0.42-0.18-0.81-0.47-1.08c-0.09-0.08-0.19-0.15-0.28-0.2l-0.11-0.04l-0.17-0.06
		l-0.13-0.01l-0.15-0.01l-0.13,0.02l-0.1,0.02l0,0.01l-0.08,0.02c-0.04-0.09-0.08-0.18-0.13-0.27c-0.11-0.2-0.29-0.35-0.44-0.51
		c0.38-0.2,0.79-0.42,0.71-0.93c-0.06-0.38-0.2-0.79-0.33-1.17c0.26,0.11,0.53,0.17,0.82,0.11c0.13-0.03,0.25-0.08,0.36-0.14
		l0.07-0.06l0.19-0.17l0.03-0.03l-0.02,0.01c0.11-0.15,0.17-0.33,0.15-0.55C225.82,49.28,226.45,49.14,226.46,48.63z M185.1,132.05
		l-0.01-0.04l0.02,0.02L185.1,132.05z M209.33,23.13c-0.02-0.1,0-0.07,0.04,0.08l0.02,0.12c0.04,0.19,0.07,0.37,0.11,0.56
		l-0.23-0.03c-0.09-0.26-0.21-0.49-0.4-0.69C209.04,23.12,209.22,23.1,209.33,23.13z M202.52,28.22l-0.14,0.24
		c-0.03-0.09-0.05-0.19-0.08-0.28L202.52,28.22z M202.21,51.23l0.02,0.01c0.08,0.15,0.21,0.25,0.35,0.33l0.02,0.02
		c-0.26,0.11-0.48,0.27-0.48,0.57c-0.03-0.23-0.04-0.57-0.04-0.94L202.21,51.23z M202.18,55.33c0.23-0.6,0.53-1.2,0.87-1.8
		c0.19,0.19,0.49,0.31,0.81,0.34c0.06,0.19,0.23,0.33,0.52,0.37c0.11,0.02,0.22,0,0.32-0.01c-0.04,0.09-0.07,0.18-0.06,0.3
		c0.02,0.35,0.28,0.59,0.53,0.82c-0.12,0.27,0.06,0.52,0.33,0.71l-0.01,0l0.02,0.01l0.11,0.06l0.2,0.19l0,0.21
		c-0.58,0.46-1.24,0.84-2.19,1.42c-1.8,1.09-2.69,1.43-2.69,1.43S200.99,58.42,202.18,55.33z M195.97,33.17l-0.03,0.01l-0.02-0.04
		L195.97,33.17z M192.89,49.24c0.23,0.13,0.52,0.26,0.81,0.37c-0.16,0.3-0.32,0.59-0.46,0.83c-0.42,0.76-0.6-0.15-0.84-1.19
		C192.56,49.26,192.72,49.27,192.89,49.24z M185.89,13.66L185.89,13.66l-0.04,0.16l-0.17-0.12L185.89,13.66z M173.08,49.16l0.2-0.08
		c0.25,0.43,0.63,0.77,1.09,0.9c0.94,0.26,2.18-0.11,2.87-0.86c0.06,0.1,0.14,0.2,0.23,0.29c0.31,0.28,0.61,0.34,0.88,0.24
		c0.42,0.43,0.99,0.73,1.46,0.56c0.4,1.01,0.82,2.11,1.37,3.41l0,0c-0.35-0.18-0.6,0-0.82,0.24c-0.06-0.32-0.21-0.58-0.58-0.58
		l-0.04-0.17c-0.14-0.32-0.37-0.45-0.63-0.49c0.18-0.38,0.26-0.8-0.03-1.11c-0.41-0.43-0.81-0.3-1.26-0.18
		c-0.19-0.27-0.54-0.3-0.89-0.23c-0.1-0.37-0.26-0.7-0.7-0.76c-0.4-0.06-0.76,0.1-1,0.39c-0.24-0.02-0.43,0.07-0.57,0.23l-0.04-0.03
		c-0.17-0.1-0.3-0.15-0.5-0.15l-0.08,0.02l-0.03-0.01l-0.07-0.03l-0.17-0.05l-0.1-0.01l-0.17,0.01l-0.09,0.02l-0.08,0.01l0,0.01
		l-0.15,0.04l-0.16-0.08c0.29-0.23,0.49-0.55,0.41-0.89c-0.07-0.29-0.25-0.53-0.55-0.63c-0.04-0.01-0.14-0.03-0.23-0.06
		C172.79,49.17,172.93,49.18,173.08,49.16z M174.85,64.82l-0.06,0.04l-0.15-0.09l0.2-0.22C174.87,64.68,174.88,64.77,174.85,64.82z
		 M172.62,69.22l0.08-0.05c0.58-0.45,0.9-1.39,0.7-2.12l0.18-0.12c0.4-0.09,0.72-0.31,0.71-0.7l0.01,0
		c0.35,0.16,0.69,0.32,0.97,0.47c1.47,0.74,2.41,2.58,3.31,4.29C177.06,71.06,174.74,70.2,172.62,69.22z M184.15,71.83
		c-0.24,0.6-2.48-1.95-5.61-4.59c-1.23-1.04-2.11-2.19-2.73-3.21c0.35-0.25,0.55-0.57,0.26-0.88c-0.18-0.2-0.29-0.09-0.38-0.38
		c-0.06-0.21,0.32-0.37,0.45-0.51l0.14-0.19c0.11-0.09,0.21-0.19,0.27-0.32c0.21,0,0.4-0.06,0.56-0.15l0.06-0.02
		c0.53,0.27,1.4,0.05,1.81-0.24c0.18-0.13,0.36-0.35,0.33-0.58c0.23-0.14,0.4-0.35,0.36-0.63c0.36-0.2,0.69-0.46,0.71-0.9
		c0.01-0.32-0.23-0.48-0.51-0.59c0.08-0.09,0.16-0.19,0.22-0.3c0.64-0.29,1.6-0.95,1.04-1.45c-0.12-0.1-0.2-0.11-0.27-0.15
		l-0.02-0.05l0,0l-0.09-0.19c0.08-0.1,0.14-0.21,0.18-0.32l0.19-0.17c0.22-0.27,0.22-0.56,0.04-0.8c0.12-0.22,0.26-0.55,0.29-0.85
		c1.59,3.85,2.39,7.04,2.44,10.78C183.95,67.96,184.39,71.23,184.15,71.83z M187.14,62.36c-0.77-0.08-4.39-8.3-5.45-11.76
		c-0.04-0.14-0.09-0.3-0.13-0.45l0.18-0.08c0.38-0.26,0.35-0.67,0.23-1.06c0.17,0.01,0.35,0.02,0.53-0.01
		c0.51,0.28,1.25,0.57,1.8,0.56c0.13,0.86,0.78,1.7,1.62,1.85l0.23,0.02c0.03,0.17,0.05,0.33,0.08,0.51
		C186.64,55,187.91,62.44,187.14,62.36z M190.49,57.32c-0.15,1.27-0.49,3.58-1.05,3.78c-0.56,0.2-0.85-1.07-1.47-6.34
		c-0.12-1.02-0.3-2.24-0.55-3.54c0.56-0.23,1.08-0.61,1.38-1.09c0.09,0.03,0.19,0.05,0.28,0.07c0.47,0.33,1.02,0.46,1.41,0.08
		c0.35,0.15,0.71,0.26,1.06,0.23c0.14,0.61,0.14,1.12,0.08,1.72C191.49,53.65,190.64,56.06,190.49,57.32z M197.39,78.32
		c-0.32,0.41-0.6,0.76-0.81,0.96c-1.06,1.07-2.29,2.88-2.98,3.82c-0.69,0.94-1.19,0.55-1.14-1.29c0.05-1.84-0.52-4.95-0.17-6.85
		c0.24-1.29,0.71-2.92,1.52-4.37c0.12,0.11,0.24,0.21,0.35,0.29c0.03,0.11,0.08,0.21,0.13,0.3c-0.26,0.04-0.49,0.13-0.54,0.42
		c-0.06,0.38,0.18,0.66,0.45,0.9c-0.08,0.24,0.02,0.44,0.2,0.6c-0.06,0.19,0.05,0.41,0.18,0.55c0.3,0.32,1.01,0.66,1.51,0.52
		l0.06,0.03c0.12,0.11,0.27,0.18,0.44,0.22c0.03,0.12,0.09,0.23,0.17,0.32l0.09,0.19c0.09,0.14,0.39,0.35,0.3,0.52
		c-0.12,0.23-0.2,0.12-0.39,0.26c-0.54,0.38,0.24,1.05,0.78,1.36c0.04,0.1,0.1,0.2,0.16,0.28c-0.25,0.06-0.48,0.18-0.49,0.46
		C197.22,78.02,197.29,78.18,197.39,78.32z M198.26,79.92l-0.08,0c-0.09,0-0.04-0.19,0.1-0.5l0.1,0.1
		C198.33,79.64,198.29,79.78,198.26,79.92z M196.96,64.2c-0.55,0.82-1.49,1.78-2.4,2.58c-0.12-0.11-0.27-0.18-0.48-0.12
		c-0.35,0.1-0.41,0.48-0.38,0.85c-0.66,0.53-1.23,0.9-1.51,0.97c-0.74,0.2-0.53-1.93-0.43-5.47c0.1-3.53,0.74-7.56,2.32-11.13
		c0.33-0.74,0.63-1.44,0.92-2.14c0.22-0.08,0.38-0.24,0.41-0.55c0.01-0.16-0.01-0.25-0.04-0.33c0.07-0.17,0.14-0.34,0.21-0.5
		c0.22-0.08,0.61,0.06,0.83,0.07c0.11,0,0.21-0.01,0.3-0.03c0.21,0.04,0.42,0.04,0.63-0.04c0.25,0.26,0.54,0.42,0.87,0.48
		l-0.02,0.18c0.06,0.44,0.41,0.67,0.78,0.84c-0.03,0.49,0.5,0.73,1.03,0.76c0.07,0.19,0.24,0.31,0.54,0.35
		c0.22,0.03,0.42-0.04,0.62-0.12c-0.28,2.93-0.89,5.94-1.23,7.31C199.56,59.71,198.96,61.24,196.96,64.2z M201.68,81.83l0.02-0.01
		l0,0.01L201.68,81.83z M210.87,62.94c-0.18,0.06-0.41,0.12-0.61,0.22l-0.22-0.17c-0.07-0.13-0.16-0.25-0.27-0.37
		c-0.31-0.33-0.83-0.7-1.3-0.75c-0.36-0.04-0.67,0.41-0.74,0.72l-0.08,0.02c-0.12,0.04-0.22,0.11-0.33,0.16l-0.03,0.02l-0.18-0.2
		c-0.12-0.08-0.25-0.15-0.39-0.16c-0.2-0.02-0.39,0.04-0.57,0.12c-0.1-0.09-0.19-0.17-0.32-0.22c-0.25-0.1-0.52-0.01-0.73,0.15
		c-0.12,0.1-0.44-0.06-0.6-0.04c-0.24,0.03-0.39,0.18-0.49,0.4l-0.02,0.09v0.03V63v0.02l0.01,0.05l0.03,0.09l0.04,0.1l0.02,0.03
		l0.03,0.06l0,0l0.03,0.05c0.15,0.26,0.21,0.31-0.08,0.26c-0.29-0.05-0.54,0-0.71,0.16l-0.13-0.04v-0.01l-0.06-0.01l-0.09-0.01
		l-0.16,0l-0.07,0l-0.17,0.05l-0.04,0.02l-0.19,0.15l-0.1,0.26l-0.37,0.07c-0.28,0.04-0.47,0.21-0.58,0.45
		c-0.13,0.28-0.01,0.59,0.2,0.83l-0.15,0.04l-0.12-0.06l0-0.01l-0.06-0.02l-0.09-0.03l-0.13-0.03l-0.1-0.01l-0.14,0.01l-0.08,0.01
		l-0.02,0l-0.06-0.03c-0.17-0.04-0.29-0.01-0.45,0.04l-0.04,0.02c-0.09-0.16-0.23-0.27-0.45-0.3c-0.16-0.29-0.43-0.49-0.78-0.51
		c1.01-1.13,2.12-2.37,3.38-3.72c1.53-1.64,2.76-2.6,3.86-3.34c0.15,0.25,0.34,0.48,0.56,0.63c0.41,0.26,0.97,0.23,1.43,0.01
		l0.05,0.14c0.09,0.2,0.27,0.28,0.29,0.5c0.03,0.27,0.06,0.45,0.24,0.65c0.18,0.21,0.43,0.27,0.68,0.24l0.03,0.04
		c-0.1,0.71,0.24,1.54,0.8,1.94c0.11,0.07,0.22,0.12,0.35,0.16c0.09,0.1,0.2,0.18,0.31,0.26c0.18,0.14,0.27,0.32,0.46,0.45
		C211.17,62.74,211.05,62.87,210.87,62.94z M212.23,62.95l-0.08,0.06l-0.24-0.09l-0.12-0.1c0.13,0,0.27-0.01,0.4-0.05l0.1,0.1
		L212.23,62.95z M215,37.51l-0.05-0.02l0.01-0.08l0.11,0.06L215,37.51z M217.26,47.69l-0.09,0.05c-0.11,0.04-0.22,0-0.31-0.13
		c0.13,0.04,0.26,0.06,0.4,0.06L217.26,47.69z M220.25,42.25L220.16,42l0.18-0.02l0.07,0.04l0.03,0.06l0.23,0.13
		C220.53,42.22,220.39,42.23,220.25,42.25z M222.45,42.67l-0.11,0.04l-0.23-0.17c-0.06-0.12-0.13-0.24-0.24-0.34l-0.01-0.01
		c0.13,0,0.27,0,0.4-0.03c0.11-0.03,0.14-0.16,0.23-0.22c0.18-0.13,0.52,0.11,0.64,0.23c0.08,0.07,0.06,0.17,0.03,0.27l-0.17-0.01
		C222.77,42.45,222.61,42.56,222.45,42.67z"></path>

</svg>
