<svg>


<path d="M78.91,87.78c-0.36-0.38-1.14-0.64-1.64-0.44c-0.36,0.14-0.28,0.12-0.56-0.04l-0.04-0.23l-0.03-0.08l-0.1-0.18l-0.05-0.07
		l-0.02-0.03c-0.07-0.1-0.14-0.19-0.24-0.27l-0.06,0.03l-0.15-0.09l-0.02-0.02c0.36-0.1,0.63-0.33,0.79-0.66
		c0.77-0.27,1.82-0.84,1.68-1.71c-0.1-0.6-0.43-0.92-0.85-1.1c0.46-0.56,0.8-1.23,0.44-1.87c-0.11-0.2-0.23-0.35-0.37-0.47l0,0
		l0.01,0l-0.05-0.05l-0.01-0.01l0,0c-0.1-0.08-0.21-0.14-0.32-0.18l-0.08-0.03c-0.23-0.08-0.48-0.11-0.74-0.12l-0.1,0
		c-0.12,0-0.25,0-0.38,0c-0.05-0.15-0.14-0.26-0.24-0.36l0.02-0.01c1.07-0.8-0.13-2.14-0.79-3.12c0.31-0.01,0.61-0.04,0.94-0.19
		c0.29-0.13,0.18-0.6,0.05-0.8l-0.1-0.15c0.88-0.36,0.74-1.45,0.01-2.15c0.02-0.1,0.03-0.2,0.03-0.29l-0.02-0.11l-0.01-0.04l0-0.04
		l-0.01,0l-0.02-0.09l-0.04-0.12l-0.06-0.14l-0.07-0.11l-0.09-0.12l-0.1-0.1l-0.1-0.09l-0.13-0.09l-0.11-0.07l-0.16-0.08l-0.11-0.05
		l-0.18-0.06l-0.06-0.02v0l-0.14-0.03c-0.06-0.39-0.24-0.75-0.62-0.99c-0.25-0.16-0.52-0.23-0.79-0.27l0.01,0l-0.04,0
		c-0.14-0.02-0.28-0.03-0.43-0.04l-0.08,0c-0.17,0-0.34,0-0.51,0l-0.26,0c0.2-0.11,0.39-0.22,0.49-0.39
		c0.21-0.34,0.35-0.65,0.21-1.05l-0.04-0.13l0.09-0.16c0.3-1.05-0.43-1.74-0.84-2.61c-0.28-0.59-0.3-1.32-1.05-1.56
		c-0.73-0.23-1.45-0.17-2.13,0.08c-0.25-0.31-0.57-0.56-0.93-0.75c0.3-0.44,0.55-0.88,0.46-1.5c-0.11-0.78-0.54-1.46-1.17-1.92
		c-0.61-0.45-1.45-0.86-2.23-0.74c-0.54,0.08-0.86,0.49-1.41,0.55l-0.18,0.05l0-0.02c-0.09,0.02-0.18,0.05-0.27,0.08
		c-0.21,0.07-0.41,0.15-0.62,0.22c-0.37,0.12-0.29,0.41-0.63,0.27c-0.2-0.08-0.39-0.13-0.58-0.16l-0.06-0.02l0,0.01l-0.23-0.04
		c0.05-0.1,0.1-0.19,0.14-0.29c0.36-1.11-0.37-2.13-1.36-2.56c-0.14-0.92-0.53-1.81-1.62-1.94c-0.95-0.12-1.64,0.38-1.84,1.16
		c-0.34-0.06-0.61-0.02-0.88,0.17l0.01-0.01l-0.07,0.05c-0.06-0.21-0.19-0.41-0.32-0.55l-0.16-0.16l0.04-0.03l0.01-0.01l0.04-0.03
		l0.1-0.07h0l0.01-0.01l0.11-0.08l0.1-0.09l0.07-0.06l0.1-0.12l0.05-0.06l0.09-0.2c0.16-0.71-0.04-1.37-0.54-1.91
		c-0.57-0.63-1.5-1.12-2.39-1.15c-0.11-0.25-0.25-0.47-0.47-0.64c-0.31-0.25-0.64-0.32-1.02-0.23c-0.19,0.04-0.32,0.23-0.47,0.3
		c-0.31-0.25-0.59-0.41-1.1-0.41c-0.52,0-1.02,0.3-1.24,0.78c-0.26,0.57-0.27,1.25-0.04,1.82c0.11,0.27,0.31,0.49,0.48,0.71
		c0.19,0.14,0.17,0.22-0.08,0.24c-0.12,0.13-0.25,0.24-0.4,0.32l-0.06-0.1c-0.05-0.33-0.28-0.6-0.57-0.7
		c-0.23-0.19-0.48-0.35-0.75-0.44c0.41-1.83-0.07-4.19-1.6-4.89c-0.36-0.17-0.7-0.19-1.01,0.09c-0.3,0.27-0.57,0.54-0.83,0.82
		c-0.46-0.54-1.27-0.67-1.97-0.45c-0.25-0.14-0.47-0.3-0.45-0.49c0.04-0.41,0.15-0.82,0.14-1.23c0-0.38-0.33-0.73-0.71-0.75
		c-0.47-0.01-0.95,0.03-1.34,0.33c-0.36,0.27-0.91,1.03-1.42,0.66c-0.34-0.25-0.69-0.36-1.12-0.32l-0.16,0.1l-0.05,0.06
		c-0.12,0.15-0.24,0.34-0.28,0.31c-0.11-0.06-0.23-0.13-0.36-0.21l-0.17-0.11l-0.26-0.16l0,0c-0.41-0.26-0.85-0.5-1.28-0.54l0,0
		l-0.01,0c-0.12-0.01-0.24-0.01-0.35,0.02c-0.89,0.19-0.96,1.25-0.71,1.94c0.15,0.42,0.07,0.57-0.24,0.59
		c-0.1,0.01-0.23,0-0.38-0.01c-0.25-0.03-0.5-0.06-0.75-0.03c-0.53,0.05-0.89,0.27-1.22,0.68c-0.4,0.51-0.33,1.16-0.1,1.77
		c-0.31-0.02-0.64,0.03-0.92,0.13c-0.56,0.21-0.97,0.47-1.13,0.91c-0.29-0.08-0.63,0.01-0.98,0.29c-0.58,0.46-0.97,0.6-1.73,0.51
		c-0.27-0.03-0.68-0.66-1.06-0.79c-0.21-0.07-0.44-0.12-0.66-0.07c-0.14,0.02-0.27,0.06-0.4,0.12l-0.15,0.05
		c-0.24-0.23-0.56-0.34-0.92-0.32c-0.7,0.03-1.34,0.24-1.93,0.56l0,0l-0.02,0.01c-0.21,0.12-0.41,0.25-0.6,0.39
		c-0.85,0.11-1.98,0.65-2.03,1.62c-0.02,0.29,0.02,0.55,0.11,0.83l0.01,0.08l-0.15,0.23c-0.22,0.34-0.32,0.65-0.32,1
		c-0.45,0.27-0.95,0.69-1.1,1.15c-0.09,0.27-0.02,0.49,0.13,0.67c-0.23,0.71-0.04,1.37,0.7,1.88c0.43,0.3,1.07,0.27,1.66,0.21
		c0.04,0.1,0.1,0.2,0.17,0.3l0.09,0.11c-0.11,0.05-0.22,0.09-0.33,0.13c-0.26,0.09-0.55,0.17-0.8,0.3c-0.5,0.27-0.6,0.68-0.46,1.05
		c-0.12,0.1-0.22,0.21-0.31,0.33c-0.61-0.34-1.37-0.54-2.06-0.46c-0.14-0.23-0.32-0.43-0.57-0.57c-0.34-0.19-0.68-0.22-1.04-0.07
		c-0.18,0.07-0.28,0.28-0.42,0.37c-0.35-0.19-0.64-0.31-1.15-0.24c-0.52,0.07-0.97,0.45-1.11,0.96c-0.17,0.6-0.07,1.27,0.24,1.81
		c0.15,0.25,0.38,0.43,0.59,0.63c0.21,0.11,0.2,0.19-0.04,0.25c-0.1,0.15-0.21,0.28-0.35,0.38c-0.14-0.24-0.39-0.47-0.62-0.62
		c-0.44-0.28-0.89-0.49-1.42-0.38c-0.9,0.19-1.21,1.18-1.3,2.04c-0.2,0.03-0.37,0.09-0.53,0.16l-0.22,0.1l-0.12,0.09l-0.15,0.12
		l-0.11,0.12l-0.11,0.14l-0.08,0.14l-0.06,0.17l-0.04,0.16l-0.02,0.2l-0.01,0.17l0.03,0.25l0.02,0.15c0.03,0.14,0.08,0.29,0.14,0.44
		c0.36,0.87,1.01,1.68,1.78,2.29c-0.2,0.31-0.31,0.64-0.33,1.01c-0.47-0.12-0.92-0.32-1.29,0.26c-0.33,0.51-0.29,1.13-0.6,1.65
		c-0.44,0.75-0.27,1.59,0.17,2.3c-0.43,0.05-0.8,0.26-1.04,0.84c-0.13,0.32-0.18,0.69-0.17,1.09c-0.08,0.07-0.15,0.16-0.2,0.26
		c-0.18,0.42-0.03,0.76,0.25,1.02c-0.18,0.28-0.21,0.57-0.12,0.87c-0.24,0.21-0.29,0.51-0.31,0.83c-0.57-0.53-1.28,0.12-0.71,0.7
		c0.21,0.21,0.28,0.6,0.34,0.98c-0.52,0.12-0.95,0.36-1.1,0.84c-0.13,0.01-0.27,0.01-0.4,0.02l-0.09,0.01
		c-0.28,0.02-0.54,0.07-0.77,0.17l-0.08,0.04c-0.12,0.06-0.23,0.13-0.34,0.23l0,0l-0.05,0.05l0.01,0c-0.13,0.13-0.25,0.29-0.35,0.51
		c-0.33,0.69,0.06,1.36,0.57,1.92c-0.43,0.21-0.75,0.57-0.81,1.19c-0.1,0.92,1.03,1.45,1.85,1.68c0.18,0.33,0.48,0.56,0.86,0.64
		l-0.02,0.02l-0.15,0.1l-0.06-0.03c-0.1,0.09-0.17,0.19-0.24,0.3l-0.02,0.03l-0.05,0.08l-0.09,0.2l-0.03,0.09l-0.03,0.24
		c-0.29,0.19-0.19,0.2-0.58,0.08C1.6,92.99,0.8,93.3,0.45,93.72c-0.09,0.11-0.16,0.23-0.22,0.34c-0.47,0.77-0.18,1.62,0.55,2.08
		c-0.03,0.13-0.04,0.25-0.05,0.38l0.01,0c-0.06,1.15,0.78,1.89,1.99,1.69c0.26,0.31,0.6,0.45,1.05,0.37
		c0.2-0.03,0.39-0.15,0.57-0.25c0.01,0.04,0.03,0.11,0.05,0.24c0.01,0.09-0.02,0.18-0.07,0.26l-0.12,0.19
		c-0.06,0.08-0.12,0.17-0.14,0.26c-0.07,0.26,0.26,0.65,0.47,0.75c0.59,0.29,1.24,0.55,1.86,0.73l0.15,0.05l-0.04,0.1
		c-0.05,0.13-0.12,0.27-0.18,0.36c-0.23,0.34-0.52,0.62-0.66,1.02c-0.21,0.61,0.36,1.05,0.88,1.22c0.87,0.27,2.5,0.16,3.25-0.61
		l0.02,0c-0.5,1.04-0.15,2.28,0.98,2.71c0.12,0.27,0.27,0.52,0.46,0.74c-0.27,1.25,0.55,2.81,1.8,3.12
		c1.23,0.31,2.88-0.27,3.66-1.33c0.2,0.08,0.41,0.15,0.61,0.19l0.01,0l0,0c0.56,0.12,1.08,0.04,1.29-0.44
		c0.59,0.04,1.2,0.1,1.67-0.3c0.33-0.28,0.43-0.63,0.39-0.99l0.07,0.12c0.21,0.63,0.53,1.31,1.25,1.5c0.4,0.1,0.76,0.01,1.15,0.09
		c0.36,0.07,0.72,0.18,1.09,0.1l0.24-0.1c0.33,0.52,0.8,0.93,1.38,1.08c1.16,0.29,2.68-0.21,3.51-1.16
		c0.08,0.12,0.17,0.24,0.29,0.35c0.39,0.33,0.76,0.4,1.08,0.27c0.66,0.64,1.59,1.02,2.19,0.4c0.53,0.21,1.08,0.36,1.6,0.19
		c0.49,0.88,0.58,1.73,0.64,2.76c0.05,1.04,0.15,2.06,0.03,3.09c-0.13,1.17-0.2,2.35-0.23,3.53c-0.06,2.17,0.02,4.33-0.01,6.5
		c-0.01,0.91-0.01,1.86-0.17,2.76c-0.12-0.5-0.31-0.97-0.67-1.4l-0.08,0.07c0.42,0.7,0.51,1.46,0.51,2.24
		c-0.03,0.09-0.06,0.19-0.1,0.27c-0.11-0.36-0.28-0.69-0.49-1.01c-0.22-0.53-0.58-0.99-1.11-1.27l-0.05,0.07
		c1,0.87,1.06,2.32,0.82,3.54c-0.09-0.39-0.24-0.77-0.33-0.99c-0.27-0.68-0.57-1.48-1.3-1.79c-0.12-0.05-0.22,0.11-0.1,0.17
		c0.63,0.38,0.89,1.21,1.02,1.9l0.01,0.11l-0.14-0.21c-0.4-0.56-0.84-1.02-1.48-1.29l-0.05,0.12c0.56,0.34,0.98,0.94,1.25,1.51
		c0.13,0.27,0.21,0.58,0.27,0.88c0.03,0.13,0.03,0.24,0.06,0.34l-0.01,0.01c-0.21-0.43-0.61-0.85-0.87-1.13
		c-0.61-0.65-1.53-1.1-2.43-1v0.13c0.59,0.02,1.09,0.29,1.51,0.67c-0.24-0.11-0.5-0.19-0.77-0.23c-0.1-0.01-0.11,0.14-0.02,0.17
		c0.2,0.07,0.37,0.17,0.54,0.28l-0.23-0.02v0.06c0.3,0.04,0.56,0.19,0.78,0.4l0.01,0.01c0.12,0.12,0.23,0.26,0.33,0.4
		c-0.79-0.46-1.62-0.71-2.62-0.55c-0.09,0.02-0.07,0.16,0.02,0.16c1.24,0.02,2.04,0.72,2.96,1.43l0.04,0.01
		c-0.03,0.18,0.15,0.32,0.74,0.38c0.27,0.03,0.55,0.04,0.82,0.05c0.46,0.09,0.93,0.22,1.38,0.32c0.29-0.07,0.57-0.17,0.84-0.29
		c-0.09,0.24-0.18,0.55-0.05,0.71c0.09,0.1,0.2,0.12,0.32,0.09c0.08,0.13,0.19,0.23,0.32,0.3c0.59,0.35,1.25,0.53,1.92,0.62
		c0.47,0.06,1,0.12,1.48,0.07c0.54-0.05,0.67-0.48,0.96-0.77c0.14-0.06,0.29-0.12,0.44-0.16l0.01-0.08l0.02,0l-0.01,0.08l0.11-0.03
		c0.1-0.02,0.2-0.03,0.3-0.02l0.01-0.12l0.23-0.05l0,0.03c0.1-0.03,0.23,0,0.39,0.11l0.12,0.08l0.04,0
		c-0.01-0.09-0.02-0.18-0.04-0.27l0.09-0.01c0.05,0.13,0.11,0.25,0.18,0.37c0.24,0.25,0.78,0.2,1.1,0.22
		c0.15,0.01,0.31,0.01,0.46,0.02l-0.01-0.08l-0.04-0.05l0.08,0.01c0.78,0,1.54-0.21,2.31-0.34c0.6-0.1,1.69-0.32,1.03-1.14
		c0.25-0.05,0.9-0.14,1.21-0.39v0.01c0.04,0.26,0.42,0.18,0.44-0.06l0.02-0.09l0.08-0.17c0.01-0.12,0.03-0.24,0.06-0.37
		c0.22-0.52,0.63-0.94,1.01-1.38l-0.12-0.12c-0.13,0.11-0.28,0.23-0.43,0.36c0.3-0.5,0.71-0.93,1.19-1.19l-0.06-0.13
		c-0.18,0.06-0.36,0.14-0.53,0.23l0.02-0.02l-0.11-0.14c-0.57,0.24-0.98,0.76-1.31,1.26l-0.14,0.25c0.09-0.42,0.2-0.82,0.43-1.25
		c0.32-0.61,0.75-1.13,1.15-1.68l-0.14-0.14c-0.15,0.11-0.27,0.25-0.41,0.38c0.06-0.1,0.12-0.2,0.18-0.31
		c0.04-0.1-0.05-0.17-0.13-0.13l0.23-0.21c0.08-0.06,0.01-0.2-0.09-0.15c-0.75,0.43-1.32,1.14-1.74,1.94
		c0.03-0.28,0.07-0.56,0.12-0.83c0.18-0.85,0.68-1.58,1.02-2.37c0.05-0.13-0.11-0.24-0.19-0.11c-0.14,0.23-0.29,0.45-0.45,0.68
		l0.12-0.23l-0.05-0.04c-0.61,0.74-1.02,1.56-1.24,2.49c-0.08,0.34-0.34,0.96-0.3,1.43l-0.07-0.08c0.06-1.65,0.31-3.26,0.98-4.8
		c0.04-0.11-0.1-0.2-0.16-0.1c-0.5,0.81-0.84,1.7-1.07,2.61c-0.01-0.8,0.05-1.59,0.26-2.4l0-0.03l0.06-0.14
		c0.09-0.16-0.15-0.3-0.25-0.14c-0.64,0.99-0.68,2.13-0.83,3.27l-0.02,0.09c-0.38-1.13-0.44-2.51-0.53-3.54
		c-0.31-3.57-1.29-7.1-1.23-10.7c0.01-0.77,0.09-1.55,0.3-2.3c0.22-0.79,0.71-1.43,1.14-2.11c0.58,0.2,1.17,0.28,1.71-0.12
		c0.41-0.29,0.41-0.73,0.29-1.16c0.13-0.05,0.26-0.09,0.37-0.14l0.07-0.04l0.18-0.01c1.09,0.57,3.03,1.16,3.11-0.15
		c0.02-0.35-0.13-0.45-0.09-0.66c0.01-0.07,0.04-0.16,0.11-0.27c0.19-0.32,0.85-0.05,1.19-0.05c0.14,0,0.26-0.02,0.38-0.04
		c0.26,0.04,0.51,0.03,0.77-0.06c0.47,0.47,1.07,0.68,1.72,0.57c0.19,0.39,0.38,0.78,0.76,1.04c0.42,0.29,0.8,0.32,1.1,0.16
		c0.72,0.57,1.69,0.86,2.22,0.18c0.69,0.2,1.4,0.31,1.99-0.21L62,108.2c0.19-0.1,0.35-0.26,0.39-0.52c0.04-0.25,0.01-0.5-0.03-0.75
		c0.11-0.01,0.21-0.02,0.32-0.04c1.14,0.46,3.13,0.85,3.08-0.46c-0.02-0.47-0.29-0.45-0.08-0.92l0.09-0.07
		c0.32,0.21,0.64,0.24,0.97,0.11c0.94,0.72,1.98,0.47,2.45-0.54l0.01,0c0.05-0.11,0.1-0.22,0.13-0.34c0.83-0.06,1.46-0.65,1.4-1.51
		c0-0.12-0.01-0.25-0.03-0.39c-0.11-0.51-0.64-1.14-1.17-1.23c-0.38-0.07-0.3-0.04-0.46-0.32l0.08-0.21l0.02-0.09l0.01-0.2l0-0.09
		l0-0.02c0-0.12-0.02-0.25-0.07-0.37l-0.07-0.01l-0.09-0.16l0-0.02c0.36,0.11,0.71,0.04,1.02-0.16c0.8,0.17,1.99,0.23,2.32-0.59
		c0.22-0.56,0.12-1.01-0.15-1.38c0.17-0.06,0.34-0.13,0.49-0.21c0.37-0.02,0.71-0.08,0.98-0.18c0.49-0.19,1.01-0.64,0.78-1.22
		c-0.15-0.37-0.45-0.63-0.69-0.94l-0.12-0.18l-0.05-0.1l-0.07-0.15l0.14-0.06c0.59-0.21,1.2-0.5,1.75-0.81
		c0.19-0.11,0.49-0.5,0.41-0.74c-0.03-0.09-0.09-0.17-0.15-0.25l-0.11-0.16c-0.05-0.08-0.1-0.16-0.09-0.25
		c0.01-0.12,0.03-0.2,0.04-0.24c0.17,0.09,0.36,0.19,0.55,0.21c0.44,0.05,0.75-0.11,0.99-0.42c1.17,0.13,1.93-0.63,1.81-1.73l0.01,0
		c-0.01-0.12-0.03-0.24-0.07-0.36c0.68-0.48,0.91-1.31,0.41-2.02C79.08,87.99,79,87.88,78.91,87.78z M38.71,64.43l-0.21-0.14
		l0.25-0.06l0,0L38.71,64.43z M49.96,127.13c-0.19,0.27-0.41,0.51-0.63,0.75C49.5,127.61,49.72,127.36,49.96,127.13z M51.85,87.9
		l-0.03-0.04l0.06,0.03L51.85,87.9z M59.61,81.86c-0.03-0.12-0.07-0.23-0.11-0.34c0.09,0.01,0.17,0.04,0.27,0.04
		C59.71,81.66,59.66,81.76,59.61,81.86z M67.92,75.93c-0.11-0.31-0.28-0.6-0.52-0.84c0.21-0.05,0.44-0.07,0.57-0.05
		c-0.02-0.12-0.01-0.09,0.05,0.1l0.03,0.14c0.05,0.23,0.1,0.46,0.15,0.68C68.11,75.94,68.02,75.93,67.92,75.93z"></path>

 </svg>
